<?xml version="1.0" encoding="UTF-8"?> <svg xmlns="http://www.w3.org/2000/svg" width="96" height="96" viewBox="0 0 96 96" fill="none"> <path d="M53.664 13.4881C50.736 9.88809 45.264 9.88809 42.336 13.4881C35.28 22.3201 24 38.1601 24 49.4881C24 62.5921 34.752 73.2001 48 73.2001C61.248 73.2001 72 62.5921 72 49.4881C72 38.1601 60.72 22.3201 53.664 13.4881ZM48 63.6001C42.72 63.6001 38.4 59.4241 38.4 54.2881C38.4 52.0801 40.176 46.5121 45.984 37.6801C46.944 36.2401 49.056 36.2401 50.016 37.6801C55.824 46.5121 57.6 52.0801 57.6 54.2881C57.6 59.4241 53.28 63.6001 48 63.6001Z" fill="#0093D5"></path> <path opacity="0.35" d="M53.664 13.4881C50.736 9.88809 45.264 9.88809 42.336 13.4881C35.28 22.3201 24 38.1601 24 49.4881C24 62.5921 34.752 73.2001 48 73.2001C61.248 73.2001 72 62.5921 72 49.4881C72 38.1601 60.72 22.3201 53.664 13.4881Z" fill="#0093D5"></path> <path opacity="0.35" d="M83.6921 76.2438L69.2601 71.9998L83.6921 67.7558C86.8721 66.8198 88.6921 63.4878 87.7601 60.3078C86.8281 57.1278 83.472 55.3158 80.312 56.2438L48.0001 65.7478L15.6921 56.2478C12.5441 55.3198 9.18005 57.1318 8.24405 60.3118C7.31205 63.4918 9.13205 66.8238 12.3121 67.7598L26.7401 71.9998L12.3081 76.2438C9.12805 77.1798 7.30805 80.5118 8.24005 83.6918C9.01205 86.3078 11.4041 87.9998 13.9961 87.9998C14.5601 87.9998 15.1281 87.9198 15.6921 87.7518L48.0001 78.2518L80.3081 87.7518C80.8721 87.9198 81.4401 87.9998 82.0041 87.9998C84.5921 87.9998 86.9881 86.3038 87.7561 83.6918C88.6921 80.5118 86.8721 77.1798 83.6921 76.2438Z" fill="#0093D5"></path> </svg> 