<?xml version="1.0" encoding="UTF-8"?> <svg xmlns="http://www.w3.org/2000/svg" width="100" height="100" viewBox="0 0 100 100" fill="none"> <path opacity="0.35" d="M87.4997 37.5H70.833V54.1667H87.4997V37.5Z" fill="#0093D5"></path> <path opacity="0.35" d="M68.3913 57.9752L64.583 54.1668L62.4288 43.3835C61.258 37.5377 56.1288 33.3335 50.1705 33.3335H28.9955C23.0372 33.3335 17.908 37.5377 16.7372 43.3835L14.583 54.1668L10.7747 57.9752C9.21217 59.5377 8.33301 61.6585 8.33301 63.8668V79.1668C8.33301 81.4668 10.1997 83.3335 12.4997 83.3335H66.6663C68.9663 83.3335 70.833 81.4668 70.833 79.1668V63.8668C70.833 61.6585 69.9538 59.5377 68.3913 57.9752Z" fill="#0093D5"></path> <path d="M58.3337 74.9998C60.6348 74.9998 62.5003 73.1344 62.5003 70.8332C62.5003 68.532 60.6348 66.6665 58.3337 66.6665C56.0325 66.6665 54.167 68.532 54.167 70.8332C54.167 73.1344 56.0325 74.9998 58.3337 74.9998Z" fill="#0093D5"></path> <path d="M20.8337 74.9998C23.1348 74.9998 25.0003 73.1344 25.0003 70.8332C25.0003 68.532 23.1348 66.6665 20.8337 66.6665C18.5325 66.6665 16.667 68.532 16.667 70.8332C16.667 73.1344 18.5325 74.9998 20.8337 74.9998Z" fill="#0093D5"></path> <path d="M66.6663 83.3332H58.333V87.4998C58.333 89.7998 60.1997 91.6665 62.4997 91.6665H66.6663C68.9663 91.6665 70.833 89.7998 70.833 87.4998V79.1665C70.833 81.4665 68.9663 83.3332 66.6663 83.3332Z" fill="#0093D5"></path> <path d="M12.4997 83.3332H20.833V87.4998C20.833 89.7998 18.9663 91.6665 16.6663 91.6665H12.4997C10.1997 91.6665 8.33301 89.7998 8.33301 87.4998V79.1665C8.33301 81.4665 10.1997 83.3332 12.4997 83.3332Z" fill="#0093D5"></path> <path d="M89.225 32.9752L85.4167 29.1668L83.2583 18.3835C82.0917 12.5377 76.9625 8.3335 71.0042 8.3335H49.8333C43.875 8.3335 38.7458 12.5377 37.575 18.3835L35.4167 29.1668L31.6083 32.9752C31.4958 33.0877 31.4167 33.2168 31.3125 33.3335H50.1667C56.125 33.3335 61.2542 37.5377 62.425 43.3835L64.5833 54.1668L68.3917 57.9752C68.5 58.0835 68.5833 58.2168 68.6833 58.3335H79.1667V62.5002C79.1667 64.8002 81.0333 66.6668 83.3333 66.6668H87.5C89.8 66.6668 91.6667 64.8002 91.6667 62.5002V38.8668C91.6667 36.6585 90.7875 34.5377 89.225 32.9752ZM79.1667 50.0002C76.8667 50.0002 75 48.1335 75 45.8335C75 43.5335 76.8667 41.6668 79.1667 41.6668C81.4667 41.6668 83.3333 43.5335 83.3333 45.8335C83.3333 48.1335 81.4667 50.0002 79.1667 50.0002Z" fill="#0093D5"></path> </svg> 