<?xml version="1.0" encoding="UTF-8"?> <svg xmlns="http://www.w3.org/2000/svg" width="96" height="96" viewBox="0 0 96 96" fill="none"> <path opacity="0.35" d="M20 76C22.2091 76 24 74.2091 24 72C24 69.7909 22.2091 68 20 68C17.7909 68 16 69.7909 16 72C16 74.2091 17.7909 76 20 76Z" fill="#0093D5"></path> <path opacity="0.35" d="M20 64C22.2091 64 24 62.2091 24 60C24 57.7909 22.2091 56 20 56C17.7909 56 16 57.7909 16 60C16 62.2091 17.7909 64 20 64Z" fill="#0093D5"></path> <path opacity="0.35" d="M20 52C22.2091 52 24 50.2091 24 48C24 45.7909 22.2091 44 20 44C17.7909 44 16 45.7909 16 48C16 50.2091 17.7909 52 20 52Z" fill="#0093D5"></path> <path d="M84 48H8C5.792 48 4 46.208 4 44C4 41.792 5.792 40 8 40H84C86.208 40 88 41.792 88 44C88 46.208 86.208 48 84 48Z" fill="#0093D5"></path> <path d="M80 24H68V82C68 85.312 70.688 88 74 88C77.312 88 80 85.312 80 82V24Z" fill="#0093D5"></path> <path d="M80 24H68C65.792 24 64 25.792 64 28C64 30.208 65.792 32 68 32H80C82.208 32 84 30.208 84 28C84 25.792 82.208 24 80 24Z" fill="#0093D5"></path> <path d="M46 8C42.688 8 40 10.688 40 14V82C40 85.312 42.688 88 46 88C49.312 88 52 85.312 52 82V14C52 10.688 49.312 8 46 8Z" fill="#0093D5"></path> <path opacity="0.35" d="M11.9998 47.9999C10.9358 47.9999 9.87585 47.5799 9.08785 46.7439C7.57185 45.1359 7.65185 42.6039 9.25585 41.0879L43.2558 9.08791C44.6558 7.77191 46.7958 7.63591 48.3518 8.76791L70.3518 24.7679C72.1358 26.0639 72.5318 28.5679 71.2318 30.3519C69.9358 32.1399 67.4358 32.5359 65.6438 31.2359L46.3238 17.1839L14.7398 46.9159C13.9678 47.6399 12.9838 47.9999 11.9998 47.9999Z" fill="#0093D5"></path> <path d="M27.1 84H12.9C10.192 84 8 81.808 8 79.1V76.896C8 74.192 10.192 72 12.9 72H27.104C29.808 72 32 74.192 32 76.9V79.104C32 81.808 29.808 84 27.1 84Z" fill="#0093D5"></path> </svg> 