<?xml version="1.0" encoding="UTF-8"?> <svg xmlns="http://www.w3.org/2000/svg" width="96" height="96" viewBox="0 0 96 96" fill="none"> <path opacity="0.35" d="M26 36C20.4772 36 16 31.5228 16 26C16 20.4772 20.4772 16 26 16C31.5228 16 36 20.4772 36 26C36 31.5228 31.5228 36 26 36Z" fill="#0093D5"></path> <path d="M92 70.5C91.9958 71.9574 91.415 73.3539 90.3844 74.3844C89.3539 75.415 87.9574 75.9958 86.5 76H9.5C8.77729 76.0016 8.06138 75.8604 7.39337 75.5846C6.72537 75.3087 6.11842 74.9037 5.60738 74.3926C5.09635 73.8816 4.69128 73.2746 4.41544 72.6066C4.1396 71.9386 3.99842 71.2227 4 70.5C4 63 13.284 52 17.752 52C22.22 52 26.264 60 37 60C50.432 60 59 32 70 32C81 32 92 56 92 70.5Z" fill="#0093D5"></path> </svg> 