<?xml version="1.0" encoding="UTF-8"?> <svg xmlns="http://www.w3.org/2000/svg" width="96" height="96" viewBox="0 0 96 96" fill="none"> <path opacity="0.35" d="M76 64V20C76 13.372 70.628 8 64 8H32C25.372 8 20 13.372 20 20V64L28 84H68L76 64Z" fill="#0093D5"></path> <path d="M32 88V90C32 91.104 32.896 92 34 92H38C39.104 92 40 91.104 40 90V88H32Z" fill="#0093D5"></path> <path d="M56 88V90C56 91.104 56.896 92 58 92H62C63.104 92 64 91.104 64 90V88H56Z" fill="#0093D5"></path> <path d="M51.204 17.4399C49.5 15.5239 46.504 15.5239 44.8 17.4399C40.128 22.6959 32 32.8719 32 39.9999C32 48.8359 39.164 55.9999 48 55.9999C56.836 55.9999 64 48.8359 64 39.9999C64 32.8719 55.872 22.6959 51.204 17.4399ZM48 51.9999C43.58 51.9999 40 48.4199 40 43.9999C40 40.4359 44.064 35.3479 46.396 32.7199C47.248 31.7639 48.744 31.7639 49.6 32.7199C51.936 35.3479 56 40.4359 56 43.9999C56 48.4199 52.42 51.9999 48 51.9999Z" fill="#0093D5"></path> <path d="M20 64V76C20 82.628 25.372 88 32 88H64C70.628 88 76 82.628 76 76V64H20ZM40 80C37.792 80 36 78.208 36 76C36 73.792 37.792 72 40 72C42.208 72 44 73.792 44 76C44 78.208 42.208 80 40 80ZM56 80C53.792 80 52 78.208 52 76C52 73.792 53.792 72 56 72C58.208 72 60 73.792 60 76C60 78.208 58.208 80 56 80Z" fill="#0093D5"></path> </svg> 