<?xml version="1.0" encoding="UTF-8"?> <svg xmlns="http://www.w3.org/2000/svg" width="96" height="96" viewBox="0 0 96 96" fill="none"> <path d="M40 60H32V52H40V60Z" fill="#0093D5"></path> <path d="M56 60H48V52H56V60Z" fill="#0093D5"></path> <path d="M24 60H16V52H24V60Z" fill="#0093D5"></path> <path opacity="0.35" d="M76 88H16C11.58 88 8 84.42 8 80V41.308C8 38.728 9.244 36.308 11.34 34.804L25.036 24.988C27.948 22.904 32 24.984 32 28.568V33.308C32 34.936 33.84 35.88 35.164 34.932L49.036 24.992C51.948 22.904 56 24.984 56 28.568V33.484C56 35.076 57.772 36.032 59.1 35.152L76 24V88Z" fill="#0093D5"></path> <path d="M83.796 88H68.204C65.916 88 64.096 86.084 64.208 83.8L67.808 11.8C67.916 9.672 69.672 8 71.804 8H80.192C82.324 8 84.08 9.672 84.188 11.8L87.788 83.8C87.904 86.084 86.084 88 83.796 88Z" fill="#0093D5"></path> <path d="M56 76H48V68H56V76Z" fill="#0093D5"></path> <path d="M40 76H32V68H40V76Z" fill="#0093D5"></path> <path d="M24 76H16V68H24V76Z" fill="#0093D5"></path> </svg> 