<?xml version="1.0" encoding="UTF-8"?> <svg xmlns="http://www.w3.org/2000/svg" width="96" height="96" viewBox="0 0 96 96" fill="none"> <path d="M46.2803 59.8042C46.2883 59.8162 46.2923 59.8322 46.3003 59.8442C46.8683 59.8842 47.4203 60.0002 48.0003 60.0002C47.4123 60.0002 46.8523 59.8762 46.2803 59.8042Z" fill="#0093D5"></path> <path d="M49.72 59.8042C49.148 59.8762 48.588 60.0002 48 60.0002C48.572 60.0002 49.124 59.9122 49.688 59.8722C49.7 59.8522 49.708 59.8282 49.72 59.8042Z" fill="#0093D5"></path> <path opacity="0.35" d="M73.74 54.964C75.148 52.996 76 50.604 76 48C76 41.372 70.628 36 64 36C63.672 36 63.368 36.072 63.048 36.096C60.868 29.072 54.988 24 48 24C40.728 24 34.66 29.492 32.712 36.968C31.264 36.348 29.676 36 28 36C21.372 36 16 41.372 16 48C16 51.524 17.548 54.664 19.968 56.86C17.528 59.32 16 62.488 16 66C16 69.924 17.856 77.46 20.824 80H75.172C78.144 77.46 80 69.924 80 66C80 61.492 77.524 57.524 73.74 54.964Z" fill="#0093D5"></path> <path d="M89.032 55.872C91.168 52.624 92.304 48.656 91.932 44.396C91.428 38.656 87.816 33.568 82.868 30.616C77.288 27.284 72.316 27.56 67.96 29.12C67.536 17.38 58.776 8 48 8C37.224 8 28.464 17.38 28.04 29.116C23.688 27.556 18.712 27.28 13.132 30.612C8.184 33.568 4.576 38.656 4.068 44.396C3.692 48.656 4.828 52.624 6.968 55.872C2.756 59.164 0 64.236 0 70C0 72.116 0.432 78.116 1.104 80H20.828C17.856 77.46 16 69.924 16 66C16 62.488 17.528 59.32 19.968 56.86C17.548 54.664 16 51.524 16 48C16 41.372 21.372 36 28 36C29.676 36 31.264 36.348 32.712 36.968C34.66 29.492 40.728 24 48 24C54.988 24 60.868 29.072 63.048 36.096C63.368 36.072 63.672 36 64 36C70.628 36 76 41.372 76 48C76 50.604 75.148 52.996 73.74 54.964C77.524 57.524 80 61.492 80 66C80 69.924 78.144 77.46 75.176 80H94.9C95.568 78.116 96 72.116 96 70C96 64.236 93.244 59.164 89.032 55.872Z" fill="#0093D5"></path> <path d="M59.6042 80L70.1602 68.084C71.9042 66.776 70.9802 64 68.8002 64H59.6042L64.2082 52.492C65.1722 50.084 62.3642 47.932 60.2882 49.488L51.6042 56L49.5442 43.644C49.1802 41.452 46.0282 41.452 45.6642 43.644L43.6042 56L34.5242 49.192C32.5642 47.72 29.9042 49.756 30.8162 52.032L35.6042 64H30.4842C27.4282 64 26.3122 68.024 28.9322 69.596L39.6042 80H59.6042Z" fill="#0093D5"></path> </svg> 