<?xml version="1.0" encoding="UTF-8"?> <svg xmlns="http://www.w3.org/2000/svg" width="96" height="96" viewBox="0 0 96 96" fill="none"> <path opacity="0.35" d="M29.0683 72.0024L28.5323 80.0184C28.4639 81.041 28.6062 82.0666 28.9504 83.0319C29.2946 83.9972 29.8334 84.8815 30.5333 85.63C31.2333 86.3785 32.0795 86.9754 33.0195 87.3835C33.9595 87.7916 34.9734 88.0023 35.9982 88.0026C37.023 88.0029 38.0369 87.7927 38.9772 87.3851C39.9174 86.9775 40.764 86.3811 41.4643 85.6329C42.1646 84.8848 42.7039 84.0008 43.0486 83.0357C43.3933 82.0706 43.5362 81.045 43.4683 80.0224L42.9323 72.0024H29.0683Z" fill="#0093D5"></path> <path opacity="0.35" d="M83.9999 67.1992C84.104 72.6091 82.0558 77.839 78.3055 81.7395C74.5552 85.6399 69.4097 87.8917 63.9999 88C58.59 87.8917 53.4445 85.6399 49.6942 81.7395C45.944 77.839 43.8958 72.6091 43.9999 67.1992C43.9999 57.9331 54.1602 44.7043 59.9972 37.869C60.4872 37.2838 61.0996 36.8132 61.7911 36.4903C62.4827 36.1674 63.2366 36 63.9999 36C64.7631 36 65.5171 36.1674 66.2086 36.4903C66.9002 36.8132 67.5125 37.2838 68.0025 37.869C73.8396 44.7043 83.9999 57.9331 83.9999 67.1992Z" fill="#0093D5"></path> <path d="M73.9999 69.5996C74.0528 70.9459 73.8333 72.289 73.3546 73.5484C72.8759 74.8078 72.1479 75.9576 71.2141 76.9288C70.2802 77.9 69.1599 78.6727 67.9203 79.2005C66.6807 79.7283 65.3472 80.0003 63.9999 80.0003C62.6526 80.0003 61.3191 79.7283 60.0795 79.2005C58.8399 78.6727 57.7196 77.9 56.7858 76.9288C55.852 75.9576 55.1239 74.8078 54.6452 73.5484C54.1665 72.289 53.947 70.9459 53.9999 69.5996C53.9999 64.9665 59.0799 58.3521 61.9986 54.9345C62.2436 54.6419 62.5498 54.4066 62.8955 54.2451C63.2413 54.0837 63.6183 54 63.9999 54C64.3815 54 64.7585 54.0837 65.1043 54.2451C65.4501 54.4066 65.7562 54.6419 66.0012 54.9345C68.9199 58.352 73.9999 64.9665 73.9999 69.5996Z" fill="#0093D5"></path> <path d="M43.9998 67.1991C43.9998 60.6496 49.0758 52.1293 54.1131 45.2773L49.6318 39.0983C50.202 38.7652 50.6961 38.3164 51.0824 37.7808C51.4686 37.2452 51.7385 36.6346 51.8745 35.9884C52.0105 35.3422 52.0097 34.6747 51.8722 34.0288C51.7346 33.383 51.4634 32.773 51.0758 32.2383L46.9758 26.5823C47.5686 25.9012 47.9216 25.0446 47.9808 24.1436C48.0401 23.2427 47.8023 22.3472 47.3038 21.5943L39.5078 9.76234C39.1584 9.22885 38.6834 8.78924 38.1245 8.48205C37.5657 8.17486 36.94 8.00948 36.3023 8.0004C35.6646 7.99131 35.0344 8.13881 34.467 8.42996C33.8996 8.72111 33.4123 9.14702 33.0478 9.67034L24.7558 21.4943C24.2048 22.2787 23.9434 23.2302 24.0163 24.1861C24.0893 25.1419 24.4921 26.0427 25.1558 26.7343L21.0078 32.1143C20.5823 32.666 20.2829 33.3042 20.1307 33.9841C19.9786 34.6641 19.9774 35.3691 20.1273 36.0495C20.2772 36.7299 20.5745 37.3691 20.9983 37.9222C21.422 38.4752 21.9619 38.9286 22.5798 39.2503L17.2638 46.1423C16.3278 47.3344 15.8925 48.8439 16.05 50.3513C16.2075 51.8587 16.9456 53.2456 18.1078 54.2183L13.5158 60.1703C12.6822 61.328 12.197 62.6998 12.1172 64.1241C12.0374 65.5484 12.3665 66.9659 13.0656 68.2094C13.7647 69.4529 14.8047 70.4706 16.063 71.1426C17.3214 71.8147 18.7456 72.1129 20.1678 72.0023H44.5888C44.2121 70.4286 44.0146 68.8173 43.9998 67.1991Z" fill="#0093D5"></path> </svg> 