<?xml version="1.0" encoding="UTF-8"?> <svg xmlns="http://www.w3.org/2000/svg" width="96" height="96" viewBox="0 0 96 96" fill="none"> <g clip-path="url(#clip0_435_111)"> <path d="M36 50C36 46.52 39.972 39.408 42.908 34.628C44.328 32.32 47.672 32.32 49.088 34.628C52.028 39.408 56 46.52 56 50C56 55.524 51.524 60 46 60C40.476 60 36 55.524 36 50Z" fill="#0093D5"></path> <path opacity="0.35" d="M80 46C80 43.048 78.38 40.496 76 39.108V24.892C78.38 23.504 80 20.952 80 18C80 13.58 76.42 10 72 10H20C15.58 10 12 13.58 12 18C12 20.952 13.62 23.504 16 24.892V39.112C13.62 40.496 12 43.048 12 46C12 48.952 13.62 51.504 16 52.892V67.112C13.62 68.496 12 71.048 12 74C12 78.42 15.58 82 20 82H72C76.42 82 80 78.42 80 74C80 71.048 78.38 68.496 76 67.108V52.888C78.38 51.504 80 48.952 80 46Z" fill="#0093D5"></path> <path d="M95.9039 82.004L93.9439 74.16C93.3319 71.716 91.1359 70 88.6159 70H79.3839C76.8639 70 74.6679 71.716 74.0599 74.156L72.0999 82C71.5919 84.032 73.1239 86 75.2199 86H92.7839C94.8759 86 96.4079 84.032 95.9039 82.004Z" fill="#0093D5"></path> <path d="M67.9039 82.004L65.9439 74.16C65.3319 71.716 63.1359 70 60.6159 70H51.3839C48.8639 70 46.6679 71.716 46.0599 74.156L44.0999 82C43.5919 84.032 45.1239 86 47.2199 86H64.7839C66.8759 86 68.4079 84.032 67.9039 82.004Z" fill="#0093D5"></path> <path d="M79.9039 62.004L77.9439 54.16C77.3319 51.716 75.1359 50 72.6159 50H67.3839C64.8639 50 62.6679 51.716 62.0599 54.156L60.0999 62C59.5919 64.032 61.1239 66 63.2199 66H76.7839C78.8759 66 80.4079 64.032 79.9039 62.004Z" fill="#0093D5"></path> </g> <defs> <clipPath id="clip0_435_111"> <rect width="96" height="96" fill="white"></rect> </clipPath> </defs> </svg> 