<?xml version="1.0" encoding="UTF-8"?> <svg xmlns="http://www.w3.org/2000/svg" width="76" height="89" viewBox="0 0 76 89" fill="none"> <path opacity="0.35" d="M5.5 87V84.5C2.46243 84.5 0 82.0376 0 79V57.7831C0 56.3331 0.629536 54.9544 1.72535 54.0047L13.5905 43.7216C14.4996 42.9337 15.6622 42.5 16.8652 42.5H46.375C48.1009 42.5 49.5 43.8991 49.5 45.625C49.5 46.6605 50.3395 47.5 51.375 47.5H52C53.1046 47.5 54 46.6046 54 45.5V14C54 12.3431 55.3431 11 57 11H66C67.6569 11 69 12.3431 69 14V49.5C69 58.3366 61.8366 65.5 53 65.5V79.5C53 82.2614 50.7614 84.5 48 84.5V87C48 88.1046 47.1046 89 46 89H42.5C41.3954 89 40.5 88.1046 40.5 87V84.5H13.5V87C13.5 88.1046 12.6046 89 11.5 89H7.5C6.39543 89 5.5 88.1046 5.5 87Z" fill="#0093D5"></path> <path opacity="0.35" d="M60.9185 0.69526C61.5773 0.271736 62.4227 0.271736 63.0815 0.69526L70.2719 5.31764C71.951 6.39705 71.1865 9 69.1904 9H54.8096C52.8135 9 52.049 6.39705 53.7281 5.31764L60.9185 0.69526Z" fill="#0093D5"></path> <path d="M37.9996 14C38.0201 15.5329 37.4467 17.0143 36.3996 18.134C34.8505 19.959 34 22.2751 34 24.669C34 27.0629 34.8505 29.379 36.3996 31.204C37.4467 32.3237 38.0201 33.8051 37.9996 35.338V35.338C38.0373 36.5881 38.8875 38 40.1382 38L40.31 38C41.1038 38 41.8153 37.4685 41.9171 36.6812C41.9746 36.2364 42.0022 35.7876 41.9994 35.338C42.0256 32.9385 41.1718 30.6126 39.5995 28.8C38.57 27.6693 37.9994 26.1952 37.9994 24.666C37.9994 23.1368 38.57 21.6627 39.5995 20.532C41.1696 18.7204 42.0232 16.3972 41.9994 14C41.9994 13.4696 41.7887 12.9609 41.4137 12.5858C41.0386 12.2107 40.5299 12 39.9995 12C39.4691 12 38.9604 12.2107 38.5853 12.5858C38.2103 12.9609 37.9996 13.4696 37.9996 14Z" fill="#0093D5"></path> <path d="M20.3121 38C21.1107 38 21.825 37.4625 21.9231 36.67C21.9777 36.2286 22.0032 35.7837 21.9994 35.338C22.0256 32.9385 21.1718 30.6126 19.5995 28.8C18.57 27.6693 17.9994 26.1952 17.9994 24.666C17.9994 23.1368 18.57 21.6627 19.5995 20.532C21.1697 18.7204 22.0232 16.3972 21.9994 14C21.9994 13.4696 21.7887 12.9609 21.4137 12.5858C21.0386 12.2107 20.5299 12 19.9995 12C19.4691 12 18.9604 12.2107 18.5853 12.5858C18.2103 12.9609 17.9996 13.4696 17.9996 14C18.0201 15.5329 17.4467 17.0143 16.3996 18.134C14.8505 19.959 14 22.2751 14 24.669C14 27.0629 14.8505 29.379 16.3996 31.204C17.4467 32.3237 18.0201 33.8051 17.9996 35.338V35.338C18.0373 36.5881 18.8875 38 20.1381 38L20.3121 38Z" fill="#0093D5"></path> <path d="M27.9996 14C28.0201 15.5329 27.4467 17.0143 26.3996 18.134C24.8505 19.959 24 22.2751 24 24.669C24 27.0629 24.8505 29.379 26.3996 31.204C27.4467 32.3237 28.0201 33.8051 27.9996 35.338V35.338C28.0373 36.5881 28.8875 38 30.1381 38L30.3121 38C31.1107 38 31.825 37.4625 31.9231 36.67C31.9777 36.2286 32.0032 35.7837 31.9994 35.338C32.0256 32.9385 31.1718 30.6126 29.5995 28.8C28.57 27.6693 27.9994 26.1952 27.9994 24.666C27.9994 23.1368 28.57 21.6627 29.5995 20.532C31.1697 18.7204 32.0232 16.3972 31.9994 14C31.9994 13.4696 31.7887 12.9609 31.4137 12.5858C31.0386 12.2107 30.5299 12 29.9995 12C29.4691 12 28.9604 12.2107 28.5853 12.5858C28.2103 12.9609 27.9996 13.4696 27.9996 14Z" fill="#0093D5"></path> <path d="M30.0025 53.8982C28.9375 52.7006 27.065 52.7006 26 53.8982C23.08 57.1834 18 63.5439 18 67.9992C18 73.5222 22.4775 78 28 78C33.5225 78 38 73.5222 38 67.9992C38 63.5439 32.92 57.1834 30.0025 53.8982ZM28 75.4998C25.2375 75.4998 23 73.2621 23 70.4994C23 68.2718 25.54 65.0915 26.9975 63.4489C27.53 62.8514 28.465 62.8514 29 63.4489C30.46 65.0915 33 68.2718 33 70.4994C33 73.2621 30.7625 75.4998 28 75.4998Z" fill="#0093D5"></path> </svg> 