<?xml version="1.0" encoding="UTF-8"?> <svg xmlns="http://www.w3.org/2000/svg" width="96" height="95" viewBox="0 0 96 95" fill="none"> <path opacity="0.35" d="M40 95C62.092 95 80 77.092 80 55C80 32.908 62.092 15 40 15C17.908 15 0 32.908 0 55C0 77.092 17.908 95 40 95ZM40 35C51.044 35 60 43.956 60 55C60 66.044 51.044 75 40 75C28.956 75 20 66.044 20 55C20 43.956 28.956 35 40 35Z" fill="#0093D5"></path> <path d="M36.04 15.2C36.152 17.312 37.86 19 40 19C42.14 19 43.848 17.312 43.96 15.2C42.656 15.072 41.336 15 40 15C38.664 15 37.344 15.072 36.04 15.2Z" fill="#0093D5"></path> <path d="M43.96 94.8C43.848 92.688 42.14 91 40 91C37.86 91 36.152 92.688 36.04 94.8C37.344 94.928 38.664 95 40 95C41.336 95 42.656 94.928 43.96 94.8Z" fill="#0093D5"></path> <path d="M79.8 51.04C77.688 51.152 76 52.86 76 55C76 57.14 77.688 58.848 79.8 58.96C79.928 57.656 80 56.336 80 55C80 53.664 79.928 52.344 79.8 51.04Z" fill="#0093D5"></path> <path d="M0.2 58.96C2.312 58.848 4 57.14 4 55C4 52.86 2.312 51.152 0.2 51.04C0.0719998 52.344 0 53.664 0 55C0 56.336 0.0719998 57.656 0.2 58.96Z" fill="#0093D5"></path> <path d="M16.6719 22.5118C17.8199 24.2838 20.1479 24.8918 21.9999 23.8238C23.8519 22.7558 24.4879 20.4358 23.5279 18.5518C22.3359 19.0918 21.1559 19.6918 19.9999 20.3598C18.8439 21.0278 17.7359 21.7478 16.6719 22.5118Z" fill="#0093D5"></path> <path d="M63.3283 87.4878C62.1763 85.7158 59.8523 85.1078 58.0003 86.1758C56.1483 87.2438 55.5123 89.5638 56.4723 91.4478C57.6643 90.9078 58.8443 90.3078 60.0003 89.6398C61.1563 88.9718 62.2643 88.2518 63.3283 87.4878Z" fill="#0093D5"></path> <path d="M72.4878 31.6719C70.7158 32.8239 70.1078 35.1479 71.1758 36.9999C72.2438 38.8519 74.5638 39.4879 76.4478 38.5279C75.9078 37.3359 75.3078 36.1559 74.6398 34.9999C73.9718 33.8439 73.2518 32.7359 72.4878 31.6719Z" fill="#0093D5"></path> <path d="M7.51176 78.3279C9.28376 77.1759 9.89176 74.8519 8.82376 72.9999C7.75576 71.1479 5.43576 70.5119 3.55176 71.4719C4.09176 72.6639 4.69176 73.8439 5.35976 74.9999C6.02776 76.1559 6.74776 77.2639 7.51176 78.3279Z" fill="#0093D5"></path> <path d="M3.55176 38.5279C5.43576 39.4879 7.75176 38.8519 8.82376 36.9999C9.89576 35.1479 9.28376 32.8199 7.51176 31.6719C6.74776 32.7359 6.02776 33.8439 5.35976 34.9999C4.69176 36.1559 4.09176 37.3359 3.55176 38.5279Z" fill="#0093D5"></path> <path d="M76.4476 71.4719C74.5636 70.5119 72.2476 71.1479 71.1756 72.9999C70.1036 74.8519 70.7156 77.1799 72.4876 78.3279C73.2516 77.2639 73.9716 76.1559 74.6396 74.9999C75.3076 73.8439 75.9076 72.6639 76.4476 71.4719Z" fill="#0093D5"></path> <path d="M56.4723 18.5518C55.5123 20.4358 56.1483 22.7518 58.0003 23.8238C59.8523 24.8958 62.1803 24.2838 63.3283 22.5118C62.2643 21.7478 61.1563 21.0278 60.0003 20.3598C58.8443 19.6918 57.6643 19.0918 56.4723 18.5518Z" fill="#0093D5"></path> <path d="M23.5279 91.4481C24.4879 89.5641 23.8519 87.2481 21.9999 86.1761C20.1479 85.1041 17.8199 85.7161 16.6719 87.4881C17.7359 88.2521 18.8439 88.9721 19.9999 89.6401C21.1559 90.3081 22.3359 90.9081 23.5279 91.4481Z" fill="#0093D5"></path> <path d="M40 79C26.764 79 16 68.236 16 55C16 41.764 26.764 31 40 31C53.236 31 64 41.764 64 55C64 68.236 53.236 79 40 79ZM40 39C31.176 39 24 46.176 24 55C24 63.824 31.176 71 40 71C48.824 71 56 63.824 56 55C56 46.176 48.824 39 40 39Z" fill="#0093D5"></path> <path opacity="0.35" d="M90 30.5988C90 39.6563 82.6121 47 73.5 47C64.3879 47 57 39.6563 57 30.5988C57 23.292 65.382 12.8608 70.1979 7.47304C71.9531 5.50899 75.0469 5.50899 76.8021 7.47304C81.618 12.8608 90 23.292 90 30.5988Z" fill="#0093D5"></path> <path opacity="0.35" d="M71 17.7992C71 23.9848 65.8509 29 59.5 29C53.1491 29 48 23.9848 48 17.7992C48 12.8092 53.842 5.68545 57.1986 2.00598C58.4219 0.664675 60.5781 0.664675 61.8014 2.00598C65.158 5.68545 71 12.8092 71 17.7992Z" fill="#0093D5"></path> <path opacity="0.35" d="M48 13.3994C48 17.5968 44.418 21 40 21C35.582 21 32 17.5968 32 13.3994C32 10.0134 36.064 5.17941 38.399 2.68263C39.25 1.77246 40.75 1.77246 41.601 2.68263C43.936 5.17941 48 10.0134 48 13.3994Z" fill="#0093D5"></path> <path opacity="0.35" d="M87 52.3994C87 56.5968 83.418 60 79 60C74.582 60 71 56.5968 71 52.3994C71 49.0134 75.064 44.1794 77.399 41.6826C78.25 40.7725 79.75 40.7725 80.601 41.6826C82.936 44.1794 87 49.0134 87 52.3994Z" fill="#0093D5"></path> <path d="M82 34.9994C82 39.4177 78.1941 43 73.5 43C68.8059 43 65 39.4177 65 34.9994C65 31.4351 69.318 26.3468 71.7979 23.7186C72.7031 22.7605 74.2948 22.7605 75.2 23.7186C77.682 26.3468 82 31.4351 82 34.9994Z" fill="#0093D5"></path> <path d="M66 20.7996C66 23.6715 63.3135 26 60 26C56.6865 26 54 23.6715 54 20.7996C54 18.4828 57.048 15.1754 58.7985 13.4671C59.4375 12.8443 60.561 12.8443 61.2 13.4671C62.952 15.1754 66 18.4828 66 20.7996Z" fill="#0093D5"></path> <path d="M45 15.3997C45 17.388 42.9851 19 40.5 19C38.0149 19 36 17.388 36 15.3997C36 13.7958 38.286 11.506 39.5989 10.3233C40.0781 9.89222 40.9208 9.89222 41.4 10.3233C42.714 11.506 45 13.7958 45 15.3997Z" fill="#0093D5"></path> <path d="M84 54.3997C84 56.388 81.9851 58 79.5 58C77.0149 58 75 56.388 75 54.3997C75 52.7958 77.286 50.506 78.5989 49.3233C79.0781 48.8922 79.9208 48.8922 80.4 49.3233C81.714 50.506 84 52.7958 84 54.3997Z" fill="#0093D5"></path> </svg> 