<svg width="8" height="12" viewBox="0 0 8 12" fill="none" xmlns="http://www.w3.org/2000/svg">
<path d="M4 0L3.63889 0.553398C3.63889 0.553398 2.74653 1.88228 1.84722 3.46602C1.39757 4.25789 0.940972 5.11893 0.597222 5.91262C0.253472 6.70631 0 7.40716 0 8.03883C0 10.2342 1.81076 12 4 12C6.1875 12 8 10.2342 8 8.03883C8 7.40716 7.74653 6.70631 7.40278 5.91262C7.05903 5.11893 6.60243 4.25789 6.15278 3.46602C5.25347 1.88228 4.36111 0.553398 4.36111 0.553398L4 0ZM4 1.66019C4.25694 2.04976 4.70312 2.7142 5.40278 3.9466C5.84201 4.72027 6.27431 5.54854 6.59722 6.29126C6.92014 7.03398 7.11111 7.70752 7.11111 8.03883C7.11111 9.69721 5.73785 11.068 4 11.068C2.26215 11.068 0.888889 9.69721 0.888889 8.03883C0.888889 7.70752 1.07986 7.03398 1.40278 6.29126C1.72569 5.54854 2.15799 4.72027 2.59722 3.9466C3.29688 2.7142 3.74306 2.04976 4 1.66019Z" fill="#15428A"/>
</svg>
