<svg width="7" height="15" viewBox="0 0 7 15" fill="none" xmlns="http://www.w3.org/2000/svg">
<path d="M3.49627 0C2.24742 0 1.22369 1.04574 1.22369 2.32143V8.74791C0.484849 9.40211 0 10.3532 0 11.4286C0 13.3946 1.57163 15 3.49627 15C5.4209 15 6.99253 13.3946 6.99253 11.4286C6.99253 10.3532 6.50768 9.40211 5.76884 8.74791V7.5H6.46809C6.53759 7.501 6.60658 7.48789 6.67107 7.46142C6.73556 7.43495 6.79426 7.39565 6.84375 7.3458C6.89324 7.29595 6.93254 7.23656 6.95936 7.17106C6.98619 7.10557 7 7.03528 7 6.96429C7 6.89329 6.98619 6.823 6.95936 6.75751C6.93254 6.69201 6.89324 6.63262 6.84375 6.58277C6.79426 6.53293 6.73556 6.49363 6.67107 6.46715C6.60658 6.44068 6.53759 6.42757 6.46809 6.42857H5.76884V5.71429H6.46809C6.53759 5.71529 6.60658 5.70217 6.67107 5.6757C6.73556 5.64923 6.79426 5.60993 6.84375 5.56009C6.89324 5.51024 6.93254 5.45084 6.95936 5.38535C6.98619 5.31986 7 5.24957 7 5.17857C7 5.10758 6.98619 5.03729 6.95936 4.97179C6.93254 4.9063 6.89324 4.8469 6.84375 4.79706C6.79426 4.74721 6.73556 4.70791 6.67107 4.68144C6.60658 4.65497 6.53759 4.64185 6.46809 4.64286H5.76884V3.92857H6.46809C6.53759 3.92958 6.60658 3.91646 6.67107 3.88999C6.73556 3.86352 6.79426 3.82422 6.84375 3.77437C6.89324 3.72453 6.93254 3.66513 6.95936 3.59964C6.98619 3.53414 7 3.46385 7 3.39286C7 3.32186 6.98619 3.25157 6.95936 3.18608C6.93254 3.12058 6.89324 3.06119 6.84375 3.01134C6.79426 2.9615 6.73556 2.9222 6.67107 2.89573C6.60658 2.86925 6.53759 2.85614 6.46809 2.85714H5.76884V2.32143C5.76884 1.04574 4.74511 0 3.49627 0ZM3.49627 1.07143C4.17806 1.07143 4.71996 1.62498 4.71996 2.32143V3.30497C4.71071 3.36248 4.71071 3.42114 4.71996 3.47866V5.09068C4.71071 5.14819 4.71071 5.20686 4.71996 5.26437V6.8764C4.71071 6.93391 4.71071 6.99257 4.71996 7.05008V8.9774C4.71998 9.06169 4.73947 9.14478 4.77685 9.21993C4.81423 9.29508 4.86843 9.36016 4.93506 9.40988C5.54638 9.86569 5.94365 10.5952 5.94365 11.4286C5.94365 12.8154 4.85393 13.9286 3.49627 13.9286C2.1386 13.9286 1.04888 12.8154 1.04888 11.4286C1.04888 10.5952 1.44616 9.86569 2.05747 9.40988C2.1241 9.36016 2.17831 9.29508 2.21568 9.21993C2.25306 9.14478 2.27255 9.06169 2.27257 8.9774V2.32143C2.27257 1.62498 2.81447 1.07143 3.49627 1.07143ZM3.48807 4.63518C3.3491 4.6374 3.21667 4.69588 3.11988 4.79776C3.02308 4.89965 2.96983 5.03661 2.97183 5.17857V9.72517C2.57345 9.85319 2.2331 10.1227 2.01239 10.4848C1.79168 10.847 1.70518 11.2779 1.76856 11.6996C1.83194 12.1212 2.04101 12.5058 2.35792 12.7836C2.67483 13.0615 3.07864 13.2142 3.49627 13.2143C3.91276 13.2127 4.315 13.0592 4.63056 12.7816C4.94613 12.5039 5.15427 12.1203 5.21752 11.6997C5.28076 11.2792 5.19495 10.8495 4.97553 10.4878C4.75612 10.1262 4.41752 9.8565 4.02071 9.72726V5.17857C4.02171 5.10687 4.00862 5.03569 3.9822 4.96925C3.95578 4.90282 3.91657 4.84247 3.8669 4.7918C3.81723 4.74113 3.75811 4.70115 3.69303 4.67425C3.62796 4.64735 3.55826 4.63406 3.48807 4.63518Z" fill="#15428A"/>
</svg>
