<?xml version="1.0" encoding="UTF-8"?> <svg xmlns="http://www.w3.org/2000/svg" width="856" height="400" viewBox="0 0 856 400" fill="none"> <rect x="660" y="320" width="30" height="10" fill="#CC0033"></rect> <rect x="660" y="30" width="30" height="204" fill="#009966"></rect> <rect x="660" y="289" width="30" height="31" fill="#FF9933"></rect> <rect x="660" y="234" width="30" height="55" fill="#FFDE33"></rect> <rect x="380" y="294" width="30" height="36" fill="#FFDE33"></rect> <rect x="380" y="30" width="30" height="264" fill="#009966"></rect> <rect x="30" y="30" width="30" height="300" fill="#009966"></rect> <rect x="100" y="30" width="30" height="276" fill="#009966"></rect> <rect x="100" y="306" width="30" height="24" fill="#FFDE33"></rect> <rect x="170" y="30" width="30" height="300" fill="#009966"></rect> <rect x="240" y="30" width="30" height="269" fill="#009966"></rect> <rect x="240" y="299" width="30" height="31" fill="#FFDE33"></rect> <rect x="450" y="289" width="30" height="41" fill="#CC0033"></rect> <rect x="450" y="194" width="30" height="95" fill="#FF9933"></rect> <rect x="450" y="146" width="30" height="48" fill="#FFDE33"></rect> <rect x="450" y="30" width="30" height="116" fill="#009966"></rect> <rect x="310" y="30" width="30" height="290" fill="#009966"></rect> <rect x="310" y="320" width="30" height="10" fill="#FFDE33"></rect> <rect x="520" y="146" width="30" height="48" fill="#FFDE33"></rect> <rect x="520" y="30" width="30" height="116" fill="#009966"></rect> <rect x="520" y="311" width="30" height="19" fill="#CC0033"></rect> <rect x="520" y="194" width="30" height="117" fill="#FF9933"></rect> <rect x="590" y="299" width="30" height="31" fill="#CC0033"></rect> <rect x="590" y="136" width="30" height="163" fill="#FF9933"></rect> <rect x="590" y="96" width="30" height="40" fill="#FFDE33"></rect> <rect x="590" y="30" width="30" height="66" fill="#009966"></rect> <path d="M654.352 351.312V352.368C655.28 352.384 656.012 352.536 656.548 352.824C657.084 353.112 657.464 353.496 657.688 353.976C657.912 354.448 658.024 354.976 658.024 355.56C658.024 355.944 657.964 356.328 657.844 356.712C657.732 357.088 657.536 357.432 657.256 357.744C656.976 358.048 656.6 358.296 656.128 358.488C655.656 358.68 655.064 358.784 654.352 358.8V360.12H653.284V358.8C652.556 358.784 651.952 358.68 651.472 358.488C651 358.288 650.628 358.032 650.356 357.72C650.084 357.4 649.892 357.052 649.78 356.676C649.668 356.3 649.612 355.928 649.612 355.56C649.612 354.992 649.724 354.472 649.948 354C650.18 353.52 650.564 353.132 651.1 352.836C651.636 352.54 652.364 352.384 653.284 352.368V351.312H654.352ZM653.284 353.28C652.644 353.296 652.132 353.4 651.748 353.592C651.372 353.784 651.104 354.048 650.944 354.384C650.784 354.712 650.704 355.1 650.704 355.548C650.704 356.252 650.908 356.816 651.316 357.24C651.732 357.656 652.388 357.88 653.284 357.912V353.28ZM654.352 357.912C655.28 357.88 655.94 357.652 656.332 357.228C656.732 356.796 656.932 356.236 656.932 355.548C656.932 355.092 656.852 354.7 656.692 354.372C656.532 354.036 656.264 353.776 655.888 353.592C655.512 353.4 655 353.296 654.352 353.28V357.912ZM662.149 353.448C662.701 353.448 663.173 353.568 663.565 353.808C663.965 354.048 664.269 354.388 664.477 354.828C664.693 355.26 664.801 355.768 664.801 356.352V356.988H660.397C660.413 357.716 660.597 358.272 660.949 358.656C661.309 359.032 661.809 359.22 662.449 359.22C662.857 359.22 663.217 359.184 663.529 359.112C663.849 359.032 664.177 358.92 664.513 358.776V359.7C664.185 359.844 663.861 359.948 663.541 360.012C663.221 360.084 662.841 360.12 662.401 360.12C661.793 360.12 661.253 359.996 660.781 359.748C660.317 359.5 659.953 359.132 659.689 358.644C659.433 358.148 659.305 357.544 659.305 356.832C659.305 356.128 659.421 355.524 659.653 355.02C659.893 354.516 660.225 354.128 660.649 353.856C661.081 353.584 661.581 353.448 662.149 353.448ZM662.137 354.312C661.633 354.312 661.233 354.476 660.937 354.804C660.649 355.124 660.477 355.572 660.421 356.148H663.697C663.689 355.604 663.561 355.164 663.313 354.828C663.065 354.484 662.673 354.312 662.137 354.312ZM671.61 355.188C671.61 355.588 671.49 355.9 671.25 356.124C671.01 356.348 670.702 356.5 670.326 356.58V356.628C670.726 356.684 671.074 356.828 671.37 357.06C671.666 357.284 671.814 357.636 671.814 358.116C671.814 358.66 671.61 359.112 671.202 359.472C670.802 359.824 670.138 360 669.21 360H666.438V353.568H669.198C669.654 353.568 670.062 353.62 670.422 353.724C670.79 353.82 671.078 353.988 671.286 354.228C671.502 354.46 671.61 354.78 671.61 355.188ZM670.542 355.32C670.542 355.016 670.43 354.796 670.206 354.66C669.99 354.516 669.634 354.444 669.138 354.444H667.494V356.208H668.946C670.01 356.208 670.542 355.912 670.542 355.32ZM670.722 358.116C670.722 357.748 670.582 357.484 670.302 357.324C670.022 357.164 669.61 357.084 669.066 357.084H667.494V359.148H669.09C669.618 359.148 670.022 359.072 670.302 358.92C670.582 358.76 670.722 358.492 670.722 358.116ZM676.412 353.448C677.204 353.448 677.84 353.724 678.32 354.276C678.808 354.828 679.052 355.66 679.052 356.772C679.052 357.868 678.808 358.7 678.32 359.268C677.84 359.836 677.2 360.12 676.4 360.12C675.904 360.12 675.492 360.028 675.164 359.844C674.844 359.652 674.592 359.432 674.408 359.184H674.336C674.352 359.32 674.368 359.492 674.384 359.7C674.4 359.908 674.408 360.088 674.408 360.24V362.88H673.352V353.568H674.216L674.36 354.444H674.408C674.6 354.164 674.852 353.928 675.164 353.736C675.476 353.544 675.892 353.448 676.412 353.448ZM676.22 354.336C675.564 354.336 675.1 354.52 674.828 354.888C674.564 355.256 674.424 355.816 674.408 356.568V356.772C674.408 357.564 674.536 358.176 674.792 358.608C675.056 359.032 675.54 359.244 676.244 359.244C676.636 359.244 676.956 359.136 677.204 358.92C677.46 358.704 677.648 358.412 677.768 358.044C677.896 357.668 677.96 357.24 677.96 356.76C677.96 356.024 677.816 355.436 677.528 354.996C677.248 354.556 676.812 354.336 676.22 354.336ZM683.171 353.46C683.955 353.46 684.535 353.632 684.911 353.976C685.287 354.32 685.475 354.868 685.475 355.62V360H684.707L684.503 359.088H684.455C684.175 359.44 683.879 359.7 683.567 359.868C683.263 360.036 682.839 360.12 682.295 360.12C681.711 360.12 681.227 359.968 680.843 359.664C680.459 359.352 680.267 358.868 680.267 358.212C680.267 357.572 680.519 357.08 681.023 356.736C681.527 356.384 682.303 356.192 683.351 356.16L684.443 356.124V355.74C684.443 355.204 684.327 354.832 684.095 354.624C683.863 354.416 683.535 354.312 683.111 354.312C682.775 354.312 682.455 354.364 682.151 354.468C681.847 354.564 681.563 354.676 681.299 354.804L680.975 354.012C681.255 353.86 681.587 353.732 681.971 353.628C682.355 353.516 682.755 353.46 683.171 353.46ZM683.483 356.892C682.683 356.924 682.127 357.052 681.815 357.276C681.511 357.5 681.359 357.816 681.359 358.224C681.359 358.584 681.467 358.848 681.683 359.016C681.907 359.184 682.191 359.268 682.535 359.268C683.079 359.268 683.531 359.12 683.891 358.824C684.251 358.52 684.431 358.056 684.431 357.432V356.856L683.483 356.892ZM692.357 360H691.289V354.444H689.393C689.289 355.796 689.145 356.888 688.961 357.72C688.777 358.544 688.533 359.144 688.229 359.52C687.925 359.896 687.541 360.084 687.077 360.084C686.973 360.084 686.869 360.076 686.765 360.06C686.669 360.052 686.589 360.032 686.525 360V359.208C686.573 359.224 686.625 359.236 686.681 359.244C686.737 359.252 686.793 359.256 686.849 359.256C687.281 359.256 687.625 358.796 687.881 357.876C688.145 356.956 688.345 355.52 688.481 353.568H692.357V360ZM697.363 356.208C699.035 356.208 699.871 356.816 699.871 358.032C699.871 358.632 699.667 359.112 699.259 359.472C698.851 359.824 698.203 360 697.315 360H694.399V353.568H695.455V356.208H697.363ZM698.815 358.092C698.815 357.7 698.675 357.436 698.395 357.3C698.123 357.156 697.739 357.084 697.243 357.084H695.455V359.148H697.267C697.715 359.148 698.083 359.068 698.371 358.908C698.667 358.748 698.815 358.476 698.815 358.092Z" fill="black"></path> <path d="M732.944 360L730.124 352.488H730.076C730.1 352.736 730.12 353.072 730.136 353.496C730.152 353.912 730.16 354.348 730.16 354.804V360H729.164V351.432H730.76L733.4 358.452H733.448L736.136 351.432H737.72V360H736.652V354.732C736.652 354.316 736.66 353.904 736.676 353.496C736.7 353.088 736.72 352.756 736.736 352.5H736.688L733.832 360H732.944ZM742.343 353.46C743.127 353.46 743.707 353.632 744.083 353.976C744.459 354.32 744.647 354.868 744.647 355.62V360H743.879L743.675 359.088H743.627C743.347 359.44 743.051 359.7 742.739 359.868C742.435 360.036 742.011 360.12 741.467 360.12C740.883 360.12 740.399 359.968 740.015 359.664C739.631 359.352 739.439 358.868 739.439 358.212C739.439 357.572 739.691 357.08 740.195 356.736C740.699 356.384 741.475 356.192 742.523 356.16L743.615 356.124V355.74C743.615 355.204 743.499 354.832 743.267 354.624C743.035 354.416 742.707 354.312 742.283 354.312C741.947 354.312 741.627 354.364 741.323 354.468C741.019 354.564 740.735 354.676 740.471 354.804L740.147 354.012C740.427 353.86 740.759 353.732 741.143 353.628C741.527 353.516 741.927 353.46 742.343 353.46ZM742.655 356.892C741.855 356.924 741.299 357.052 740.987 357.276C740.683 357.5 740.531 357.816 740.531 358.224C740.531 358.584 740.639 358.848 740.855 359.016C741.079 359.184 741.363 359.268 741.707 359.268C742.251 359.268 742.703 359.12 743.063 358.824C743.423 358.52 743.603 358.056 743.603 357.432V356.856L742.655 356.892ZM749.693 353.448C750.485 353.448 751.121 353.724 751.601 354.276C752.089 354.828 752.333 355.66 752.333 356.772C752.333 357.868 752.089 358.7 751.601 359.268C751.121 359.836 750.481 360.12 749.681 360.12C749.185 360.12 748.773 360.028 748.445 359.844C748.125 359.652 747.873 359.432 747.689 359.184H747.617C747.633 359.32 747.649 359.492 747.665 359.7C747.681 359.908 747.689 360.088 747.689 360.24V362.88H746.633V353.568H747.497L747.641 354.444H747.689C747.881 354.164 748.133 353.928 748.445 353.736C748.757 353.544 749.173 353.448 749.693 353.448ZM749.501 354.336C748.845 354.336 748.381 354.52 748.109 354.888C747.845 355.256 747.705 355.816 747.689 356.568V356.772C747.689 357.564 747.817 358.176 748.073 358.608C748.337 359.032 748.821 359.244 749.525 359.244C749.917 359.244 750.237 359.136 750.485 358.92C750.741 358.704 750.929 358.412 751.049 358.044C751.177 357.668 751.241 357.24 751.241 356.76C751.241 356.024 751.097 355.436 750.809 354.996C750.529 354.556 750.093 354.336 749.501 354.336ZM758.339 354.456H756.239V360H755.195V354.456H753.119V353.568H758.339V354.456Z" fill="black"></path> <path d="M798.54 360L797.508 357.348H794.112L793.092 360H792L795.348 351.396H796.32L799.656 360H798.54ZM796.224 353.796C796.2 353.732 796.16 353.616 796.104 353.448C796.048 353.28 795.992 353.108 795.936 352.932C795.888 352.748 795.848 352.608 795.816 352.512C795.76 352.76 795.696 353.004 795.624 353.244C795.552 353.476 795.492 353.66 795.444 353.796L794.472 356.388H797.184L796.224 353.796ZM806.12 353.568V360H805.064V354.468H801.74V360H800.684V353.568H806.12ZM811.232 353.448C812.024 353.448 812.66 353.724 813.14 354.276C813.628 354.828 813.872 355.66 813.872 356.772C813.872 357.868 813.628 358.7 813.14 359.268C812.66 359.836 812.02 360.12 811.22 360.12C810.724 360.12 810.312 360.028 809.984 359.844C809.664 359.652 809.412 359.432 809.228 359.184H809.156C809.172 359.32 809.188 359.492 809.204 359.7C809.22 359.908 809.228 360.088 809.228 360.24V362.88H808.172V353.568H809.036L809.18 354.444H809.228C809.42 354.164 809.672 353.928 809.984 353.736C810.296 353.544 810.712 353.448 811.232 353.448ZM811.04 354.336C810.384 354.336 809.92 354.52 809.648 354.888C809.384 355.256 809.244 355.816 809.228 356.568V356.772C809.228 357.564 809.356 358.176 809.612 358.608C809.876 359.032 810.36 359.244 811.064 359.244C811.456 359.244 811.776 359.136 812.024 358.92C812.28 358.704 812.468 358.412 812.588 358.044C812.716 357.668 812.78 357.24 812.78 356.76C812.78 356.024 812.636 355.436 812.348 354.996C812.068 354.556 811.632 354.336 811.04 354.336ZM818.039 353.448C818.591 353.448 819.063 353.568 819.455 353.808C819.855 354.048 820.159 354.388 820.367 354.828C820.583 355.26 820.691 355.768 820.691 356.352V356.988H816.287C816.303 357.716 816.487 358.272 816.839 358.656C817.199 359.032 817.699 359.22 818.339 359.22C818.747 359.22 819.107 359.184 819.419 359.112C819.739 359.032 820.067 358.92 820.403 358.776V359.7C820.075 359.844 819.751 359.948 819.431 360.012C819.111 360.084 818.731 360.12 818.291 360.12C817.683 360.12 817.143 359.996 816.671 359.748C816.207 359.5 815.843 359.132 815.579 358.644C815.323 358.148 815.195 357.544 815.195 356.832C815.195 356.128 815.311 355.524 815.543 355.02C815.783 354.516 816.115 354.128 816.539 353.856C816.971 353.584 817.471 353.448 818.039 353.448ZM818.027 354.312C817.523 354.312 817.123 354.476 816.827 354.804C816.539 355.124 816.367 355.572 816.311 356.148H819.587C819.579 355.604 819.451 355.164 819.203 354.828C818.955 354.484 818.563 354.312 818.027 354.312ZM827.225 360H826.157V354.444H824.261C824.157 355.796 824.013 356.888 823.829 357.72C823.645 358.544 823.401 359.144 823.097 359.52C822.793 359.896 822.409 360.084 821.945 360.084C821.841 360.084 821.737 360.076 821.633 360.06C821.537 360.052 821.457 360.032 821.393 360V359.208C821.441 359.224 821.493 359.236 821.549 359.244C821.605 359.252 821.661 359.256 821.717 359.256C822.149 359.256 822.493 358.796 822.749 357.876C823.013 356.956 823.213 355.52 823.349 353.568H827.225V360ZM832.23 356.208C833.902 356.208 834.738 356.816 834.738 358.032C834.738 358.632 834.534 359.112 834.126 359.472C833.718 359.824 833.07 360 832.182 360H829.266V353.568H830.322V356.208H832.23ZM833.682 358.092C833.682 357.7 833.542 357.436 833.262 357.3C832.99 357.156 832.606 357.084 832.11 357.084H830.322V359.148H832.134C832.582 359.148 832.95 359.068 833.238 358.908C833.534 358.748 833.682 358.476 833.682 358.092Z" fill="black"></path> <path d="M34.944 360L32.124 352.488H32.076C32.1 352.736 32.12 353.072 32.136 353.496C32.152 353.912 32.16 354.348 32.16 354.804V360H31.164V351.432H32.76L35.4 358.452H35.448L38.136 351.432H39.72V360H38.652V354.732C38.652 354.316 38.66 353.904 38.676 353.496C38.7 353.088 38.72 352.756 38.736 352.5H38.688L35.832 360H34.944ZM44.3427 353.46C45.1267 353.46 45.7067 353.632 46.0827 353.976C46.4587 354.32 46.6467 354.868 46.6467 355.62V360H45.8787L45.6747 359.088H45.6267C45.3467 359.44 45.0507 359.7 44.7387 359.868C44.4347 360.036 44.0107 360.12 43.4667 360.12C42.8827 360.12 42.3987 359.968 42.0147 359.664C41.6307 359.352 41.4387 358.868 41.4387 358.212C41.4387 357.572 41.6907 357.08 42.1947 356.736C42.6987 356.384 43.4747 356.192 44.5227 356.16L45.6147 356.124V355.74C45.6147 355.204 45.4987 354.832 45.2667 354.624C45.0347 354.416 44.7067 354.312 44.2827 354.312C43.9467 354.312 43.6267 354.364 43.3227 354.468C43.0187 354.564 42.7347 354.676 42.4707 354.804L42.1467 354.012C42.4267 353.86 42.7587 353.732 43.1427 353.628C43.5267 353.516 43.9267 353.46 44.3427 353.46ZM44.6547 356.892C43.8547 356.924 43.2987 357.052 42.9867 357.276C42.6827 357.5 42.5307 357.816 42.5307 358.224C42.5307 358.584 42.6387 358.848 42.8547 359.016C43.0787 359.184 43.3627 359.268 43.7067 359.268C44.2507 359.268 44.7027 359.12 45.0627 358.824C45.4227 358.52 45.6027 358.056 45.6027 357.432V356.856L44.6547 356.892ZM53.8413 350.904C53.7853 351.504 53.5813 351.96 53.2293 352.272C52.8853 352.576 52.3333 352.728 51.5733 352.728C50.7893 352.728 50.2333 352.576 49.9053 352.272C49.5853 351.968 49.4053 351.512 49.3653 350.904H50.3493C50.3893 351.336 50.5013 351.628 50.6853 351.78C50.8773 351.924 51.1813 351.996 51.5973 351.996C51.9653 351.996 52.2533 351.92 52.4613 351.768C52.6773 351.608 52.8053 351.32 52.8453 350.904H53.8413ZM49.6293 357.492C49.6293 357.588 49.6253 357.732 49.6173 357.924C49.6093 358.116 49.5973 358.308 49.5813 358.5C49.5733 358.692 49.5653 358.844 49.5573 358.956L53.0013 353.568H54.2973V360H53.3133V356.208C53.3133 356.08 53.3133 355.912 53.3133 355.704C53.3213 355.496 53.3293 355.292 53.3373 355.092C53.3453 354.884 53.3533 354.728 53.3613 354.624L49.9413 360H48.6333V353.568H49.6293V357.492Z" fill="black"></path> <path d="M98.176 351.432H99.184V356.136C99.184 356.4 99.18 356.696 99.172 357.024C99.164 357.352 99.152 357.652 99.136 357.924C99.128 358.196 99.116 358.396 99.1 358.524H99.148L103.864 351.432H105.064V360H104.056V355.344C104.056 355.048 104.06 354.732 104.068 354.396C104.084 354.06 104.1 353.752 104.116 353.472C104.132 353.192 104.144 352.992 104.152 352.872H104.104L99.376 360H98.176V351.432ZM115.583 356.772C115.583 357.836 115.327 358.66 114.815 359.244C114.303 359.828 113.611 360.12 112.739 360.12C111.923 360.12 111.263 359.864 110.759 359.352C110.263 358.84 109.983 358.1 109.919 357.132H108.287V360H107.231V353.568H108.287V356.244H109.931C110.019 355.34 110.311 354.648 110.807 354.168C111.303 353.688 111.955 353.448 112.763 353.448C113.315 353.448 113.803 353.58 114.227 353.844C114.651 354.1 114.983 354.476 115.223 354.972C115.463 355.46 115.583 356.06 115.583 356.772ZM110.999 356.772C110.999 357.58 111.139 358.196 111.419 358.62C111.699 359.036 112.143 359.244 112.751 359.244C113.367 359.244 113.811 359.036 114.083 358.62C114.355 358.196 114.491 357.58 114.491 356.772C114.491 355.964 114.351 355.356 114.071 354.948C113.799 354.54 113.359 354.336 112.751 354.336C112.143 354.336 111.699 354.54 111.419 354.948C111.139 355.356 110.999 355.964 110.999 356.772ZM118.318 353.568V356.244H121.81V353.568H122.866V360H121.81V357.132H118.318V360H117.262V353.568H118.318ZM127.867 356.208C129.539 356.208 130.375 356.816 130.375 358.032C130.375 358.632 130.171 359.112 129.763 359.472C129.355 359.824 128.707 360 127.819 360H124.903V353.568H125.959V356.208H127.867ZM129.319 358.092C129.319 357.7 129.179 357.436 128.899 357.3C128.627 357.156 128.243 357.084 127.747 357.084H125.959V359.148H127.771C128.219 359.148 128.587 359.068 128.875 358.908C129.171 358.748 129.319 358.476 129.319 358.092Z" fill="black"></path> <path d="M169.176 351.432H170.184V356.136C170.184 356.4 170.18 356.696 170.172 357.024C170.164 357.352 170.152 357.652 170.136 357.924C170.128 358.196 170.116 358.396 170.1 358.524H170.148L174.864 351.432H176.064V360H175.056V355.344C175.056 355.048 175.06 354.732 175.068 354.396C175.084 354.06 175.1 353.752 175.116 353.472C175.132 353.192 175.144 352.992 175.152 352.872H175.104L170.376 360H169.176V351.432ZM186.583 356.772C186.583 357.836 186.327 358.66 185.815 359.244C185.303 359.828 184.611 360.12 183.739 360.12C182.923 360.12 182.263 359.864 181.759 359.352C181.263 358.84 180.983 358.1 180.919 357.132H179.287V360H178.231V353.568H179.287V356.244H180.931C181.019 355.34 181.311 354.648 181.807 354.168C182.303 353.688 182.955 353.448 183.763 353.448C184.315 353.448 184.803 353.58 185.227 353.844C185.651 354.1 185.983 354.476 186.223 354.972C186.463 355.46 186.583 356.06 186.583 356.772ZM181.999 356.772C181.999 357.58 182.139 358.196 182.419 358.62C182.699 359.036 183.143 359.244 183.751 359.244C184.367 359.244 184.811 359.036 185.083 358.62C185.355 358.196 185.491 357.58 185.491 356.772C185.491 355.964 185.351 355.356 185.071 354.948C184.799 354.54 184.359 354.336 183.751 354.336C183.143 354.336 182.699 354.54 182.419 354.948C182.139 355.356 181.999 355.964 181.999 356.772ZM193.158 360H192.09V354.444H190.194C190.09 355.796 189.946 356.888 189.762 357.72C189.578 358.544 189.334 359.144 189.03 359.52C188.726 359.896 188.342 360.084 187.878 360.084C187.774 360.084 187.67 360.076 187.566 360.06C187.47 360.052 187.39 360.032 187.326 360V359.208C187.374 359.224 187.426 359.236 187.482 359.244C187.538 359.252 187.594 359.256 187.65 359.256C188.082 359.256 188.426 358.796 188.682 357.876C188.946 356.956 189.146 355.52 189.282 353.568H193.158V360ZM198.164 356.208C199.836 356.208 200.672 356.816 200.672 358.032C200.672 358.632 200.468 359.112 200.06 359.472C199.652 359.824 199.004 360 198.116 360H195.2V353.568H196.256V356.208H198.164ZM199.616 358.092C199.616 357.7 199.476 357.436 199.196 357.3C198.924 357.156 198.54 357.084 198.044 357.084H196.256V359.148H198.068C198.516 359.148 198.884 359.068 199.172 358.908C199.468 358.748 199.616 358.476 199.616 358.092Z" fill="black"></path> <path d="M242.54 360L241.508 357.348H238.112L237.092 360H236L239.348 351.396H240.32L243.656 360H242.54ZM240.224 353.796C240.2 353.732 240.16 353.616 240.104 353.448C240.048 353.28 239.992 353.108 239.936 352.932C239.888 352.748 239.848 352.608 239.816 352.512C239.76 352.76 239.696 353.004 239.624 353.244C239.552 353.476 239.492 353.66 239.444 353.796L238.472 356.388H241.184L240.224 353.796ZM249.856 355.188C249.856 355.588 249.736 355.9 249.496 356.124C249.256 356.348 248.948 356.5 248.572 356.58V356.628C248.972 356.684 249.32 356.828 249.616 357.06C249.912 357.284 250.06 357.636 250.06 358.116C250.06 358.66 249.856 359.112 249.448 359.472C249.048 359.824 248.384 360 247.456 360H244.684V353.568H247.444C247.9 353.568 248.308 353.62 248.668 353.724C249.036 353.82 249.324 353.988 249.532 354.228C249.748 354.46 249.856 354.78 249.856 355.188ZM248.788 355.32C248.788 355.016 248.676 354.796 248.452 354.66C248.236 354.516 247.88 354.444 247.384 354.444H245.74V356.208H247.192C248.256 356.208 248.788 355.912 248.788 355.32ZM248.968 358.116C248.968 357.748 248.828 357.484 248.548 357.324C248.268 357.164 247.856 357.084 247.312 357.084H245.74V359.148H247.336C247.864 359.148 248.268 359.072 248.548 358.92C248.828 358.76 248.968 358.492 248.968 358.116ZM255.522 353.568V354.456H252.654V360H251.598V353.568H255.522ZM255.782 353.568H256.91L258.302 357.228C258.422 357.548 258.53 357.856 258.626 358.152C258.722 358.44 258.794 358.716 258.842 358.98H258.89C258.938 358.78 259.014 358.52 259.118 358.2C259.222 357.872 259.33 357.544 259.442 357.216L260.75 353.568H261.89L259.118 360.888C258.894 361.496 258.602 361.98 258.242 362.34C257.89 362.7 257.402 362.88 256.778 362.88C256.586 362.88 256.418 362.868 256.274 362.844C256.13 362.828 256.006 362.808 255.902 362.784V361.944C255.99 361.96 256.094 361.976 256.214 361.992C256.342 362.008 256.474 362.016 256.61 362.016C256.978 362.016 257.274 361.912 257.498 361.704C257.73 361.496 257.91 361.22 258.038 360.876L258.374 360.024L255.782 353.568ZM265.487 360.12C264.919 360.12 264.411 360.004 263.963 359.772C263.523 359.54 263.175 359.18 262.919 358.692C262.671 358.204 262.547 357.58 262.547 356.82C262.547 356.028 262.679 355.384 262.943 354.888C263.207 354.392 263.563 354.028 264.011 353.796C264.467 353.564 264.983 353.448 265.559 353.448C265.887 353.448 266.203 353.484 266.507 353.556C266.811 353.62 267.059 353.7 267.251 353.796L266.927 354.672C266.735 354.6 266.511 354.532 266.255 354.468C265.999 354.404 265.759 354.372 265.535 354.372C264.271 354.372 263.639 355.184 263.639 356.808C263.639 357.584 263.791 358.18 264.095 358.596C264.407 359.004 264.867 359.208 265.475 359.208C265.827 359.208 266.135 359.172 266.399 359.1C266.671 359.028 266.919 358.94 267.143 358.836V359.772C266.927 359.884 266.687 359.968 266.423 360.024C266.167 360.088 265.855 360.12 265.487 360.12ZM273.112 354.456H271.012V360H269.968V354.456H267.892V353.568H273.112V354.456Z" fill="black"></path> <path d="M299.836 352.26C298.916 352.26 298.192 352.568 297.664 353.184C297.136 353.8 296.872 354.644 296.872 355.716C296.872 356.78 297.116 357.624 297.604 358.248C298.1 358.864 298.84 359.172 299.824 359.172C300.2 359.172 300.556 359.14 300.892 359.076C301.228 359.012 301.556 358.932 301.876 358.836V359.772C301.556 359.892 301.224 359.98 300.88 360.036C300.544 360.092 300.14 360.12 299.668 360.12C298.796 360.12 298.068 359.94 297.484 359.58C296.9 359.22 296.46 358.708 296.164 358.044C295.876 357.38 295.732 356.6 295.732 355.704C295.732 354.84 295.888 354.08 296.2 353.424C296.52 352.76 296.988 352.244 297.604 351.876C298.22 351.5 298.968 351.312 299.848 351.312C300.752 351.312 301.54 351.48 302.212 351.816L301.78 352.728C301.516 352.608 301.22 352.5 300.892 352.404C300.572 352.308 300.22 352.26 299.836 352.26ZM306.086 353.448C306.638 353.448 307.11 353.568 307.502 353.808C307.902 354.048 308.206 354.388 308.414 354.828C308.63 355.26 308.738 355.768 308.738 356.352V356.988H304.334C304.35 357.716 304.534 358.272 304.886 358.656C305.246 359.032 305.746 359.22 306.386 359.22C306.794 359.22 307.154 359.184 307.466 359.112C307.786 359.032 308.114 358.92 308.45 358.776V359.7C308.122 359.844 307.798 359.948 307.478 360.012C307.158 360.084 306.778 360.12 306.338 360.12C305.73 360.12 305.19 359.996 304.718 359.748C304.254 359.5 303.89 359.132 303.626 358.644C303.37 358.148 303.242 357.544 303.242 356.832C303.242 356.128 303.358 355.524 303.59 355.02C303.83 354.516 304.162 354.128 304.586 353.856C305.018 353.584 305.518 353.448 306.086 353.448ZM306.074 354.312C305.57 354.312 305.17 354.476 304.874 354.804C304.586 355.124 304.414 355.572 304.358 356.148H307.634C307.626 355.604 307.498 355.164 307.25 354.828C307.002 354.484 306.61 354.312 306.074 354.312ZM311.431 353.568V356.244H314.923V353.568H315.979V360H314.923V357.132H311.431V360H310.375V353.568H311.431ZM322.456 354.456H320.356V360H319.312V354.456H317.236V353.568H322.456V354.456ZM324.119 360H322.895L324.731 357.3C324.483 357.236 324.243 357.136 324.011 357C323.779 356.856 323.591 356.66 323.447 356.412C323.303 356.156 323.231 355.84 323.231 355.464C323.231 354.848 323.439 354.38 323.855 354.06C324.271 353.732 324.823 353.568 325.511 353.568H328.391V360H327.335V357.444H325.775L324.119 360ZM324.251 355.476C324.251 355.844 324.387 356.12 324.659 356.304C324.939 356.48 325.327 356.568 325.823 356.568H327.335V354.444H325.619C325.131 354.444 324.779 354.54 324.563 354.732C324.355 354.924 324.251 355.172 324.251 355.476ZM330.09 356.136C330.09 354.728 330.302 353.632 330.726 352.848C331.15 352.056 331.834 351.56 332.778 351.36C333.298 351.248 333.806 351.148 334.302 351.06C334.798 350.972 335.262 350.892 335.694 350.82L335.874 351.744C335.594 351.784 335.278 351.836 334.926 351.9C334.574 351.956 334.226 352.016 333.882 352.08C333.538 352.136 333.242 352.192 332.994 352.248C332.474 352.36 332.062 352.632 331.758 353.064C331.454 353.488 331.282 354.152 331.242 355.056H331.314C331.426 354.904 331.578 354.748 331.77 354.588C331.97 354.428 332.206 354.292 332.478 354.18C332.758 354.068 333.074 354.012 333.426 354.012C334.258 354.012 334.886 354.28 335.31 354.816C335.734 355.352 335.946 356.048 335.946 356.904C335.946 357.616 335.822 358.212 335.574 358.692C335.326 359.172 334.982 359.532 334.542 359.772C334.102 360.004 333.59 360.12 333.006 360.12C332.118 360.12 331.41 359.78 330.882 359.1C330.354 358.42 330.09 357.432 330.09 356.136ZM333.09 359.244C333.61 359.244 334.03 359.076 334.35 358.74C334.67 358.404 334.83 357.828 334.83 357.012C334.83 356.356 334.706 355.84 334.458 355.464C334.218 355.08 333.818 354.888 333.258 354.888C332.906 354.888 332.586 354.968 332.298 355.128C332.01 355.28 331.77 355.456 331.578 355.656C331.386 355.856 331.25 356.024 331.17 356.16C331.17 356.552 331.198 356.932 331.254 357.3C331.31 357.668 331.406 358 331.542 358.296C331.686 358.584 331.882 358.816 332.13 358.992C332.386 359.16 332.706 359.244 333.09 359.244ZM340.67 353.448C341.462 353.448 342.098 353.724 342.578 354.276C343.066 354.828 343.31 355.66 343.31 356.772C343.31 357.868 343.066 358.7 342.578 359.268C342.098 359.836 341.458 360.12 340.658 360.12C340.162 360.12 339.75 360.028 339.422 359.844C339.102 359.652 338.85 359.432 338.666 359.184H338.594C338.61 359.32 338.626 359.492 338.642 359.7C338.658 359.908 338.666 360.088 338.666 360.24V362.88H337.61V353.568H338.474L338.618 354.444H338.666C338.858 354.164 339.11 353.928 339.422 353.736C339.734 353.544 340.15 353.448 340.67 353.448ZM340.478 354.336C339.822 354.336 339.358 354.52 339.086 354.888C338.822 355.256 338.682 355.816 338.666 356.568V356.772C338.666 357.564 338.794 358.176 339.05 358.608C339.314 359.032 339.798 359.244 340.502 359.244C340.894 359.244 341.214 359.136 341.462 358.92C341.718 358.704 341.906 358.412 342.026 358.044C342.154 357.668 342.218 357.24 342.218 356.76C342.218 356.024 342.074 355.436 341.786 354.996C341.506 354.556 341.07 354.336 340.478 354.336ZM347.957 356.208C349.629 356.208 350.465 356.816 350.465 358.032C350.465 358.632 350.261 359.112 349.853 359.472C349.445 359.824 348.797 360 347.909 360H344.993V353.568H346.049V356.208H347.957ZM349.409 358.092C349.409 357.7 349.269 357.436 348.989 357.3C348.717 357.156 348.333 357.084 347.837 357.084H346.049V359.148H347.861C348.309 359.148 348.677 359.068 348.965 358.908C349.261 358.748 349.409 358.476 349.409 358.092Z" fill="black"></path> <path d="M377.64 355.704C377.64 356.592 377.488 357.368 377.184 358.032C376.888 358.688 376.448 359.2 375.864 359.568C375.28 359.936 374.556 360.12 373.692 360.12C372.804 360.12 372.064 359.936 371.472 359.568C370.888 359.2 370.452 358.684 370.164 358.02C369.876 357.356 369.732 356.58 369.732 355.692C369.732 354.812 369.876 354.044 370.164 353.388C370.452 352.732 370.888 352.22 371.472 351.852C372.064 351.484 372.808 351.3 373.704 351.3C374.56 351.3 375.28 351.484 375.864 351.852C376.448 352.212 376.888 352.724 377.184 353.388C377.488 354.044 377.64 354.816 377.64 355.704ZM370.872 355.704C370.872 356.784 371.1 357.636 371.556 358.26C372.012 358.876 372.724 359.184 373.692 359.184C374.668 359.184 375.38 358.876 375.828 358.26C376.276 357.636 376.5 356.784 376.5 355.704C376.5 354.624 376.276 353.78 375.828 353.172C375.38 352.556 374.672 352.248 373.704 352.248C372.736 352.248 372.02 352.556 371.556 353.172C371.1 353.78 370.872 354.624 370.872 355.704ZM383.199 353.568H384.351L381.603 356.664L384.579 360H383.355L380.451 356.736V360H379.395V353.568H380.451V356.688L383.199 353.568ZM390.187 354.456H388.087V360H387.043V354.456H384.967V353.568H390.187V354.456ZM391.85 360H390.626L392.462 357.3C392.214 357.236 391.974 357.136 391.742 357C391.51 356.856 391.322 356.66 391.178 356.412C391.034 356.156 390.962 355.84 390.962 355.464C390.962 354.848 391.17 354.38 391.586 354.06C392.002 353.732 392.554 353.568 393.242 353.568H396.122V360H395.066V357.444H393.506L391.85 360ZM391.982 355.476C391.982 355.844 392.118 356.12 392.39 356.304C392.67 356.48 393.058 356.568 393.554 356.568H395.066V354.444H393.35C392.862 354.444 392.51 354.54 392.294 354.732C392.086 354.924 391.982 355.172 391.982 355.476ZM397.821 356.136C397.821 354.728 398.033 353.632 398.457 352.848C398.881 352.056 399.565 351.56 400.509 351.36C401.029 351.248 401.537 351.148 402.033 351.06C402.529 350.972 402.993 350.892 403.425 350.82L403.605 351.744C403.325 351.784 403.009 351.836 402.657 351.9C402.305 351.956 401.957 352.016 401.613 352.08C401.269 352.136 400.973 352.192 400.725 352.248C400.205 352.36 399.793 352.632 399.489 353.064C399.185 353.488 399.013 354.152 398.973 355.056H399.045C399.157 354.904 399.309 354.748 399.501 354.588C399.701 354.428 399.937 354.292 400.209 354.18C400.489 354.068 400.805 354.012 401.157 354.012C401.989 354.012 402.617 354.28 403.041 354.816C403.465 355.352 403.677 356.048 403.677 356.904C403.677 357.616 403.553 358.212 403.305 358.692C403.057 359.172 402.713 359.532 402.273 359.772C401.833 360.004 401.321 360.12 400.737 360.12C399.849 360.12 399.141 359.78 398.613 359.1C398.085 358.42 397.821 357.432 397.821 356.136ZM400.821 359.244C401.341 359.244 401.761 359.076 402.081 358.74C402.401 358.404 402.561 357.828 402.561 357.012C402.561 356.356 402.437 355.84 402.189 355.464C401.949 355.08 401.549 354.888 400.989 354.888C400.637 354.888 400.317 354.968 400.029 355.128C399.741 355.28 399.501 355.456 399.309 355.656C399.117 355.856 398.981 356.024 398.901 356.16C398.901 356.552 398.929 356.932 398.985 357.3C399.041 357.668 399.137 358 399.273 358.296C399.417 358.584 399.613 358.816 399.861 358.992C400.117 359.16 400.437 359.244 400.821 359.244ZM408.4 353.448C409.192 353.448 409.828 353.724 410.308 354.276C410.796 354.828 411.04 355.66 411.04 356.772C411.04 357.868 410.796 358.7 410.308 359.268C409.828 359.836 409.188 360.12 408.388 360.12C407.892 360.12 407.48 360.028 407.152 359.844C406.832 359.652 406.58 359.432 406.396 359.184H406.324C406.34 359.32 406.356 359.492 406.372 359.7C406.388 359.908 406.396 360.088 406.396 360.24V362.88H405.34V353.568H406.204L406.348 354.444H406.396C406.588 354.164 406.84 353.928 407.152 353.736C407.464 353.544 407.88 353.448 408.4 353.448ZM408.208 354.336C407.552 354.336 407.088 354.52 406.816 354.888C406.552 355.256 406.412 355.816 406.396 356.568V356.772C406.396 357.564 406.524 358.176 406.78 358.608C407.044 359.032 407.528 359.244 408.232 359.244C408.624 359.244 408.944 359.136 409.192 358.92C409.448 358.704 409.636 358.412 409.756 358.044C409.884 357.668 409.948 357.24 409.948 356.76C409.948 356.024 409.804 355.436 409.516 354.996C409.236 354.556 408.8 354.336 408.208 354.336ZM415.687 356.208C417.359 356.208 418.195 356.816 418.195 358.032C418.195 358.632 417.991 359.112 417.583 359.472C417.175 359.824 416.527 360 415.639 360H412.723V353.568H413.779V356.208H415.687ZM417.139 358.092C417.139 357.7 416.999 357.436 416.719 357.3C416.447 357.156 416.063 357.084 415.567 357.084H413.779V359.148H415.591C416.039 359.148 416.407 359.068 416.695 358.908C416.991 358.748 417.139 358.476 417.139 358.092Z" fill="black"></path> <path d="M447.716 360H446.636V356.004H442.244V360H441.164V351.432H442.244V355.056H446.636V351.432H447.716V360ZM455.507 356.772C455.507 357.836 455.235 358.66 454.691 359.244C454.155 359.828 453.427 360.12 452.507 360.12C451.939 360.12 451.431 359.992 450.983 359.736C450.543 359.472 450.195 359.092 449.939 358.596C449.683 358.092 449.555 357.484 449.555 356.772C449.555 355.708 449.823 354.888 450.359 354.312C450.895 353.736 451.623 353.448 452.543 353.448C453.127 353.448 453.639 353.58 454.079 353.844C454.527 354.1 454.875 354.476 455.123 354.972C455.379 355.46 455.507 356.06 455.507 356.772ZM450.647 356.772C450.647 357.532 450.795 358.136 451.091 358.584C451.395 359.024 451.875 359.244 452.531 359.244C453.179 359.244 453.655 359.024 453.959 358.584C454.263 358.136 454.415 357.532 454.415 356.772C454.415 356.012 454.263 355.416 453.959 354.984C453.655 354.552 453.175 354.336 452.519 354.336C451.863 354.336 451.387 354.552 451.091 354.984C450.795 355.416 450.647 356.012 450.647 356.772ZM457.576 360H456.352L458.188 357.3C457.94 357.236 457.7 357.136 457.468 357C457.236 356.856 457.048 356.66 456.904 356.412C456.76 356.156 456.688 355.84 456.688 355.464C456.688 354.848 456.896 354.38 457.312 354.06C457.728 353.732 458.28 353.568 458.968 353.568H461.848V360H460.792V357.444H459.232L457.576 360ZM457.708 355.476C457.708 355.844 457.844 356.12 458.116 356.304C458.396 356.48 458.784 356.568 459.28 356.568H460.792V354.444H459.076C458.588 354.444 458.236 354.54 458.02 354.732C457.812 354.924 457.708 355.172 457.708 355.476ZM463.547 356.136C463.547 354.728 463.759 353.632 464.183 352.848C464.607 352.056 465.291 351.56 466.235 351.36C466.755 351.248 467.263 351.148 467.759 351.06C468.255 350.972 468.719 350.892 469.151 350.82L469.331 351.744C469.051 351.784 468.735 351.836 468.383 351.9C468.031 351.956 467.683 352.016 467.339 352.08C466.995 352.136 466.699 352.192 466.451 352.248C465.931 352.36 465.519 352.632 465.215 353.064C464.911 353.488 464.739 354.152 464.699 355.056H464.771C464.883 354.904 465.035 354.748 465.227 354.588C465.427 354.428 465.663 354.292 465.935 354.18C466.215 354.068 466.531 354.012 466.883 354.012C467.715 354.012 468.343 354.28 468.767 354.816C469.191 355.352 469.403 356.048 469.403 356.904C469.403 357.616 469.279 358.212 469.031 358.692C468.783 359.172 468.439 359.532 467.999 359.772C467.559 360.004 467.047 360.12 466.463 360.12C465.575 360.12 464.867 359.78 464.339 359.1C463.811 358.42 463.547 357.432 463.547 356.136ZM466.547 359.244C467.067 359.244 467.487 359.076 467.807 358.74C468.127 358.404 468.287 357.828 468.287 357.012C468.287 356.356 468.163 355.84 467.915 355.464C467.675 355.08 467.275 354.888 466.715 354.888C466.363 354.888 466.043 354.968 465.755 355.128C465.467 355.28 465.227 355.456 465.035 355.656C464.843 355.856 464.707 356.024 464.627 356.16C464.627 356.552 464.655 356.932 464.711 357.3C464.767 357.668 464.863 358 464.999 358.296C465.143 358.584 465.339 358.816 465.587 358.992C465.843 359.16 466.163 359.244 466.547 359.244ZM474.127 353.448C474.919 353.448 475.555 353.724 476.035 354.276C476.523 354.828 476.767 355.66 476.767 356.772C476.767 357.868 476.523 358.7 476.035 359.268C475.555 359.836 474.915 360.12 474.115 360.12C473.619 360.12 473.207 360.028 472.879 359.844C472.559 359.652 472.307 359.432 472.123 359.184H472.051C472.067 359.32 472.083 359.492 472.099 359.7C472.115 359.908 472.123 360.088 472.123 360.24V362.88H471.067V353.568H471.931L472.075 354.444H472.123C472.315 354.164 472.567 353.928 472.879 353.736C473.191 353.544 473.607 353.448 474.127 353.448ZM473.935 354.336C473.279 354.336 472.815 354.52 472.543 354.888C472.279 355.256 472.139 355.816 472.123 356.568V356.772C472.123 357.564 472.251 358.176 472.507 358.608C472.771 359.032 473.255 359.244 473.959 359.244C474.351 359.244 474.671 359.136 474.919 358.92C475.175 358.704 475.363 358.412 475.483 358.044C475.611 357.668 475.675 357.24 475.675 356.76C475.675 356.024 475.531 355.436 475.243 354.996C474.963 354.556 474.527 354.336 473.935 354.336ZM481.414 356.208C483.086 356.208 483.922 356.816 483.922 358.032C483.922 358.632 483.718 359.112 483.31 359.472C482.902 359.824 482.254 360 481.366 360H478.45V353.568H479.506V356.208H481.414ZM482.866 358.092C482.866 357.7 482.726 357.436 482.446 357.3C482.174 357.156 481.79 357.084 481.294 357.084H479.506V359.148H481.318C481.766 359.148 482.134 359.068 482.422 358.908C482.718 358.748 482.866 358.476 482.866 358.092Z" fill="black"></path> <path d="M515.936 351.432V359.04H517.028V362.256H515.996V360H510.104V362.256H509.072V359.04H509.732C510.02 358.544 510.292 357.988 510.548 357.372C510.812 356.756 511.044 356.112 511.244 355.44C511.444 354.76 511.608 354.08 511.736 353.4C511.864 352.72 511.944 352.064 511.976 351.432H515.936ZM512.924 352.404C512.892 352.868 512.812 353.392 512.684 353.976C512.564 354.56 512.408 355.16 512.216 355.776C512.032 356.384 511.824 356.972 511.592 357.54C511.368 358.108 511.128 358.608 510.872 359.04H514.868V352.404H512.924ZM520.801 353.448C521.353 353.448 521.825 353.568 522.217 353.808C522.617 354.048 522.921 354.388 523.129 354.828C523.345 355.26 523.453 355.768 523.453 356.352V356.988H519.049C519.065 357.716 519.249 358.272 519.601 358.656C519.961 359.032 520.461 359.22 521.101 359.22C521.509 359.22 521.869 359.184 522.181 359.112C522.501 359.032 522.829 358.92 523.165 358.776V359.7C522.837 359.844 522.513 359.948 522.193 360.012C521.873 360.084 521.493 360.12 521.053 360.12C520.445 360.12 519.905 359.996 519.433 359.748C518.969 359.5 518.605 359.132 518.341 358.644C518.085 358.148 517.957 357.544 517.957 356.832C517.957 356.128 518.073 355.524 518.305 355.02C518.545 354.516 518.877 354.128 519.301 353.856C519.733 353.584 520.233 353.448 520.801 353.448ZM520.789 354.312C520.285 354.312 519.885 354.476 519.589 354.804C519.301 355.124 519.129 355.572 519.073 356.148H522.349C522.341 355.604 522.213 355.164 521.965 354.828C521.717 354.484 521.325 354.312 520.789 354.312ZM528.894 353.568H530.046L527.298 356.664L530.274 360H529.05L526.146 356.736V360H525.09V353.568H526.146V356.688L528.894 353.568ZM533.878 353.46C534.662 353.46 535.242 353.632 535.618 353.976C535.994 354.32 536.182 354.868 536.182 355.62V360H535.414L535.21 359.088H535.162C534.882 359.44 534.586 359.7 534.274 359.868C533.97 360.036 533.546 360.12 533.002 360.12C532.418 360.12 531.934 359.968 531.55 359.664C531.166 359.352 530.974 358.868 530.974 358.212C530.974 357.572 531.226 357.08 531.73 356.736C532.234 356.384 533.01 356.192 534.058 356.16L535.15 356.124V355.74C535.15 355.204 535.034 354.832 534.802 354.624C534.57 354.416 534.242 354.312 533.818 354.312C533.482 354.312 533.162 354.364 532.858 354.468C532.554 354.564 532.27 354.676 532.006 354.804L531.682 354.012C531.962 353.86 532.294 353.732 532.678 353.628C533.062 353.516 533.462 353.46 533.878 353.46ZM534.19 356.892C533.39 356.924 532.834 357.052 532.522 357.276C532.218 357.5 532.066 357.816 532.066 358.224C532.066 358.584 532.174 358.848 532.39 359.016C532.614 359.184 532.898 359.268 533.242 359.268C533.786 359.268 534.238 359.12 534.598 358.824C534.958 358.52 535.138 358.056 535.138 357.432V356.856L534.19 356.892ZM537.832 356.136C537.832 354.728 538.044 353.632 538.468 352.848C538.892 352.056 539.576 351.56 540.52 351.36C541.04 351.248 541.548 351.148 542.044 351.06C542.54 350.972 543.004 350.892 543.436 350.82L543.616 351.744C543.336 351.784 543.02 351.836 542.668 351.9C542.316 351.956 541.968 352.016 541.624 352.08C541.28 352.136 540.984 352.192 540.736 352.248C540.216 352.36 539.804 352.632 539.5 353.064C539.196 353.488 539.024 354.152 538.984 355.056H539.056C539.168 354.904 539.32 354.748 539.512 354.588C539.712 354.428 539.948 354.292 540.22 354.18C540.5 354.068 540.816 354.012 541.168 354.012C542 354.012 542.628 354.28 543.052 354.816C543.476 355.352 543.688 356.048 543.688 356.904C543.688 357.616 543.564 358.212 543.316 358.692C543.068 359.172 542.724 359.532 542.284 359.772C541.844 360.004 541.332 360.12 540.748 360.12C539.86 360.12 539.152 359.78 538.624 359.1C538.096 358.42 537.832 357.432 537.832 356.136ZM540.832 359.244C541.352 359.244 541.772 359.076 542.092 358.74C542.412 358.404 542.572 357.828 542.572 357.012C542.572 356.356 542.448 355.84 542.2 355.464C541.96 355.08 541.56 354.888 541 354.888C540.648 354.888 540.328 354.968 540.04 355.128C539.752 355.28 539.512 355.456 539.32 355.656C539.128 355.856 538.992 356.024 538.912 356.16C538.912 356.552 538.94 356.932 538.996 357.3C539.052 357.668 539.148 358 539.284 358.296C539.428 358.584 539.624 358.816 539.872 358.992C540.128 359.16 540.448 359.244 540.832 359.244ZM548.412 353.448C549.204 353.448 549.84 353.724 550.32 354.276C550.808 354.828 551.052 355.66 551.052 356.772C551.052 357.868 550.808 358.7 550.32 359.268C549.84 359.836 549.2 360.12 548.4 360.12C547.904 360.12 547.492 360.028 547.164 359.844C546.844 359.652 546.592 359.432 546.408 359.184H546.336C546.352 359.32 546.368 359.492 546.384 359.7C546.4 359.908 546.408 360.088 546.408 360.24V362.88H545.352V353.568H546.216L546.36 354.444H546.408C546.6 354.164 546.852 353.928 547.164 353.736C547.476 353.544 547.892 353.448 548.412 353.448ZM548.22 354.336C547.564 354.336 547.1 354.52 546.828 354.888C546.564 355.256 546.424 355.816 546.408 356.568V356.772C546.408 357.564 546.536 358.176 546.792 358.608C547.056 359.032 547.54 359.244 548.244 359.244C548.636 359.244 548.956 359.136 549.204 358.92C549.46 358.704 549.648 358.412 549.768 358.044C549.896 357.668 549.96 357.24 549.96 356.76C549.96 356.024 549.816 355.436 549.528 354.996C549.248 354.556 548.812 354.336 548.22 354.336ZM555.699 356.208C557.371 356.208 558.207 356.816 558.207 358.032C558.207 358.632 558.003 359.112 557.595 359.472C557.187 359.824 556.539 360 555.651 360H552.735V353.568H553.791V356.208H555.699ZM557.151 358.092C557.151 357.7 557.011 357.436 556.731 357.3C556.459 357.156 556.075 357.084 555.579 357.084H553.791V359.148H555.603C556.051 359.148 556.419 359.068 556.707 358.908C557.003 358.748 557.151 358.476 557.151 358.092Z" fill="black"></path> <path d="M586.744 356.448L584.524 360H583.264L585.664 356.256C585.36 356.152 585.072 356.008 584.8 355.824C584.536 355.64 584.32 355.388 584.152 355.068C583.984 354.748 583.9 354.336 583.9 353.832C583.9 353.056 584.168 352.464 584.704 352.056C585.24 351.64 586.04 351.432 587.104 351.432H589.504V360H588.424V356.448H586.744ZM587.128 352.356C586.448 352.356 585.924 352.476 585.556 352.716C585.196 352.948 585.016 353.336 585.016 353.88C585.016 354.408 585.192 354.816 585.544 355.104C585.896 355.392 586.44 355.536 587.176 355.536H588.424V352.356H587.128ZM592.74 353.568V356.244H596.232V353.568H597.288V360H596.232V357.132H592.74V360H591.684V353.568H592.74ZM604.497 355.188C604.497 355.588 604.377 355.9 604.137 356.124C603.897 356.348 603.589 356.5 603.213 356.58V356.628C603.613 356.684 603.961 356.828 604.257 357.06C604.553 357.284 604.701 357.636 604.701 358.116C604.701 358.66 604.497 359.112 604.089 359.472C603.689 359.824 603.025 360 602.097 360H599.325V353.568H602.085C602.541 353.568 602.949 353.62 603.309 353.724C603.677 353.82 603.965 353.988 604.173 354.228C604.389 354.46 604.497 354.78 604.497 355.188ZM603.429 355.32C603.429 355.016 603.317 354.796 603.093 354.66C602.877 354.516 602.521 354.444 602.025 354.444H600.381V356.208H601.833C602.897 356.208 603.429 355.912 603.429 355.32ZM603.609 358.116C603.609 357.748 603.469 357.484 603.189 357.324C602.909 357.164 602.497 357.084 601.953 357.084H600.381V359.148H601.977C602.505 359.148 602.909 359.072 603.189 358.92C603.469 358.76 603.609 358.492 603.609 358.116ZM608.675 353.46C609.459 353.46 610.039 353.632 610.415 353.976C610.791 354.32 610.979 354.868 610.979 355.62V360H610.211L610.007 359.088H609.959C609.679 359.44 609.383 359.7 609.071 359.868C608.767 360.036 608.343 360.12 607.799 360.12C607.215 360.12 606.731 359.968 606.347 359.664C605.963 359.352 605.771 358.868 605.771 358.212C605.771 357.572 606.023 357.08 606.527 356.736C607.031 356.384 607.807 356.192 608.855 356.16L609.947 356.124V355.74C609.947 355.204 609.831 354.832 609.599 354.624C609.367 354.416 609.039 354.312 608.615 354.312C608.279 354.312 607.959 354.364 607.655 354.468C607.351 354.564 607.067 354.676 606.803 354.804L606.479 354.012C606.759 353.86 607.091 353.732 607.475 353.628C607.859 353.516 608.259 353.46 608.675 353.46ZM608.987 356.892C608.187 356.924 607.631 357.052 607.319 357.276C607.015 357.5 606.863 357.816 606.863 358.224C606.863 358.584 606.971 358.848 607.187 359.016C607.411 359.184 607.695 359.268 608.039 359.268C608.583 359.268 609.035 359.12 609.395 358.824C609.755 358.52 609.935 358.056 609.935 357.432V356.856L608.987 356.892ZM616.025 353.448C616.817 353.448 617.453 353.724 617.933 354.276C618.421 354.828 618.665 355.66 618.665 356.772C618.665 357.868 618.421 358.7 617.933 359.268C617.453 359.836 616.813 360.12 616.013 360.12C615.517 360.12 615.105 360.028 614.777 359.844C614.457 359.652 614.205 359.432 614.021 359.184H613.949C613.965 359.32 613.981 359.492 613.997 359.7C614.013 359.908 614.021 360.088 614.021 360.24V362.88H612.965V353.568H613.829L613.973 354.444H614.021C614.213 354.164 614.465 353.928 614.777 353.736C615.089 353.544 615.505 353.448 616.025 353.448ZM615.833 354.336C615.177 354.336 614.713 354.52 614.441 354.888C614.177 355.256 614.037 355.816 614.021 356.568V356.772C614.021 357.564 614.149 358.176 614.405 358.608C614.669 359.032 615.153 359.244 615.857 359.244C616.249 359.244 616.569 359.136 616.817 358.92C617.073 358.704 617.261 358.412 617.381 358.044C617.509 357.668 617.573 357.24 617.573 356.76C617.573 356.024 617.429 355.436 617.141 354.996C616.861 354.556 616.425 354.336 615.833 354.336ZM623.312 356.208C624.984 356.208 625.82 356.816 625.82 358.032C625.82 358.632 625.616 359.112 625.208 359.472C624.8 359.824 624.152 360 623.264 360H620.348V353.568H621.404V356.208H623.312ZM624.764 358.092C624.764 357.7 624.624 357.436 624.344 357.3C624.072 357.156 623.688 357.084 623.192 357.084H621.404V359.148H623.216C623.664 359.148 624.032 359.068 624.32 358.908C624.616 358.748 624.764 358.476 624.764 358.092Z" fill="black"></path> <path d="M30.7074 380V378.67L33.8139 375.794C34.0781 375.538 34.2997 375.308 34.4787 375.104C34.6605 374.899 34.7983 374.699 34.892 374.503C34.9858 374.304 35.0327 374.089 35.0327 373.859C35.0327 373.604 34.9744 373.384 34.858 373.199C34.7415 373.011 34.5824 372.868 34.3807 372.768C34.179 372.666 33.9503 372.615 33.6946 372.615C33.4276 372.615 33.1946 372.669 32.9957 372.777C32.7969 372.885 32.6435 373.04 32.5355 373.241C32.4276 373.443 32.3736 373.683 32.3736 373.962H30.6222C30.6222 373.391 30.7514 372.895 31.0099 372.474C31.2685 372.054 31.6307 371.729 32.0966 371.499C32.5625 371.268 33.0994 371.153 33.7074 371.153C34.3324 371.153 34.8764 371.264 35.3395 371.486C35.8054 371.705 36.1676 372.009 36.4261 372.398C36.6847 372.787 36.8139 373.233 36.8139 373.736C36.8139 374.065 36.7486 374.391 36.6179 374.712C36.4901 375.033 36.2614 375.389 35.9318 375.781C35.6023 376.17 35.1378 376.638 34.5384 377.183L33.2642 378.432V378.491H36.929V380H30.7074ZM41.6879 380.192C40.9549 380.189 40.3242 380.009 39.7958 379.651C39.2702 379.293 38.8654 378.774 38.5813 378.095C38.3001 377.416 38.1609 376.599 38.1637 375.645C38.1637 374.693 38.3043 373.882 38.5856 373.212C38.8697 372.541 39.2745 372.031 39.8001 371.682C40.3285 371.33 40.9577 371.153 41.6879 371.153C42.418 371.153 43.0458 371.33 43.5714 371.682C44.0998 372.034 44.506 372.545 44.7901 373.216C45.0742 373.884 45.2148 374.693 45.212 375.645C45.212 376.602 45.07 377.42 44.7859 378.099C44.5046 378.778 44.1012 379.297 43.5756 379.655C43.0501 380.013 42.4208 380.192 41.6879 380.192ZM41.6879 378.662C42.1879 378.662 42.587 378.411 42.8853 377.908C43.1836 377.405 43.3313 376.651 43.3285 375.645C43.3285 374.983 43.2603 374.432 43.1239 373.991C42.9904 373.551 42.8001 373.22 42.5529 372.999C42.3086 372.777 42.0202 372.666 41.6879 372.666C41.1907 372.666 40.793 372.915 40.4947 373.412C40.1964 373.909 40.0458 374.653 40.043 375.645C40.043 376.315 40.1097 376.875 40.2433 377.324C40.3796 377.77 40.5714 378.105 40.8185 378.33C41.0657 378.551 41.3555 378.662 41.6879 378.662ZM46.5277 380V378.67L49.6342 375.794C49.8984 375.538 50.12 375.308 50.299 375.104C50.4808 374.899 50.6186 374.699 50.7124 374.503C50.8061 374.304 50.853 374.089 50.853 373.859C50.853 373.604 50.7947 373.384 50.6783 373.199C50.5618 373.011 50.4027 372.868 50.201 372.768C49.9993 372.666 49.7706 372.615 49.5149 372.615C49.2479 372.615 49.0149 372.669 48.8161 372.777C48.6172 372.885 48.4638 373.04 48.3558 373.241C48.2479 373.443 48.1939 373.683 48.1939 373.962H46.4425C46.4425 373.391 46.5717 372.895 46.8303 372.474C47.0888 372.054 47.451 371.729 47.9169 371.499C48.3828 371.268 48.9197 371.153 49.5277 371.153C50.1527 371.153 50.6967 371.264 51.1598 371.486C51.6257 371.705 51.9879 372.009 52.2464 372.398C52.505 372.787 52.6342 373.233 52.6342 373.736C52.6342 374.065 52.5689 374.391 52.4382 374.712C52.3104 375.033 52.0817 375.389 51.7521 375.781C51.4226 376.17 50.9581 376.638 50.3587 377.183L49.0845 378.432V378.491H52.7493V380H46.5277ZM54.0863 380V378.67L57.1928 375.794C57.457 375.538 57.6786 375.308 57.8576 375.104C58.0394 374.899 58.1772 374.699 58.271 374.503C58.3647 374.304 58.4116 374.089 58.4116 373.859C58.4116 373.604 58.3533 373.384 58.2369 373.199C58.1204 373.011 57.9613 372.868 57.7596 372.768C57.5579 372.666 57.3292 372.615 57.0735 372.615C56.8065 372.615 56.5735 372.669 56.3746 372.777C56.1758 372.885 56.0224 373.04 55.9144 373.241C55.8065 373.443 55.7525 373.683 55.7525 373.962H54.0011C54.0011 373.391 54.1303 372.895 54.3888 372.474C54.6474 372.054 55.0096 371.729 55.4755 371.499C55.9414 371.268 56.4783 371.153 57.0863 371.153C57.7113 371.153 58.2553 371.264 58.7184 371.486C59.1843 371.705 59.5465 372.009 59.805 372.398C60.0636 372.787 60.1928 373.233 60.1928 373.736C60.1928 374.065 60.1275 374.391 59.9968 374.712C59.869 375.033 59.6403 375.389 59.3107 375.781C58.9812 376.17 58.5167 376.638 57.9173 377.183L56.6431 378.432V378.491H60.3079V380H54.0863Z" fill="black"></path> <path d="M582.707 380V378.67L585.814 375.794C586.078 375.538 586.3 375.308 586.479 375.104C586.661 374.899 586.798 374.699 586.892 374.503C586.986 374.304 587.033 374.089 587.033 373.859C587.033 373.604 586.974 373.384 586.858 373.199C586.741 373.011 586.582 372.868 586.381 372.768C586.179 372.666 585.95 372.615 585.695 372.615C585.428 372.615 585.195 372.669 584.996 372.777C584.797 372.885 584.643 373.04 584.536 373.241C584.428 373.443 584.374 373.683 584.374 373.962H582.622C582.622 373.391 582.751 372.895 583.01 372.474C583.268 372.054 583.631 371.729 584.097 371.499C584.563 371.268 585.099 371.153 585.707 371.153C586.332 371.153 586.876 371.264 587.339 371.486C587.805 371.705 588.168 372.009 588.426 372.398C588.685 372.787 588.814 373.233 588.814 373.736C588.814 374.065 588.749 374.391 588.618 374.712C588.49 375.033 588.261 375.389 587.932 375.781C587.602 376.17 587.138 376.638 586.538 377.183L585.264 378.432V378.491H588.929V380H582.707ZM593.688 380.192C592.955 380.189 592.324 380.009 591.796 379.651C591.27 379.293 590.865 378.774 590.581 378.095C590.3 377.416 590.161 376.599 590.164 375.645C590.164 374.693 590.304 373.882 590.586 373.212C590.87 372.541 591.275 372.031 591.8 371.682C592.328 371.33 592.958 371.153 593.688 371.153C594.418 371.153 595.046 371.33 595.571 371.682C596.1 372.034 596.506 372.545 596.79 373.216C597.074 373.884 597.215 374.693 597.212 375.645C597.212 376.602 597.07 377.42 596.786 378.099C596.505 378.778 596.101 379.297 595.576 379.655C595.05 380.013 594.421 380.192 593.688 380.192ZM593.688 378.662C594.188 378.662 594.587 378.411 594.885 377.908C595.184 377.405 595.331 376.651 595.328 375.645C595.328 374.983 595.26 374.432 595.124 373.991C594.99 373.551 594.8 373.22 594.553 372.999C594.309 372.777 594.02 372.666 593.688 372.666C593.191 372.666 592.793 372.915 592.495 373.412C592.196 373.909 592.046 374.653 592.043 375.645C592.043 376.315 592.11 376.875 592.243 377.324C592.38 377.77 592.571 378.105 592.819 378.33C593.066 378.551 593.355 378.662 593.688 378.662ZM598.528 380V378.67L601.634 375.794C601.898 375.538 602.12 375.308 602.299 375.104C602.481 374.899 602.619 374.699 602.712 374.503C602.806 374.304 602.853 374.089 602.853 373.859C602.853 373.604 602.795 373.384 602.678 373.199C602.562 373.011 602.403 372.868 602.201 372.768C601.999 372.666 601.771 372.615 601.515 372.615C601.248 372.615 601.015 372.669 600.816 372.777C600.617 372.885 600.464 373.04 600.356 373.241C600.248 373.443 600.194 373.683 600.194 373.962H598.442C598.442 373.391 598.572 372.895 598.83 372.474C599.089 372.054 599.451 371.729 599.917 371.499C600.383 371.268 600.92 371.153 601.528 371.153C602.153 371.153 602.697 371.264 603.16 371.486C603.626 371.705 603.988 372.009 604.246 372.398C604.505 372.787 604.634 373.233 604.634 373.736C604.634 374.065 604.569 374.391 604.438 374.712C604.31 375.033 604.082 375.389 603.752 375.781C603.423 376.17 602.958 376.638 602.359 377.183L601.085 378.432V378.491H604.749V380H598.528ZM609.312 380.119C608.676 380.119 608.109 380.01 607.612 379.791C607.118 379.57 606.727 379.266 606.44 378.879C606.156 378.49 606.01 378.041 606.001 377.533H607.859C607.87 377.746 607.94 377.933 608.068 378.095C608.199 378.254 608.372 378.378 608.588 378.466C608.804 378.554 609.047 378.598 609.316 378.598C609.598 378.598 609.846 378.548 610.062 378.449C610.278 378.349 610.447 378.212 610.569 378.036C610.691 377.859 610.752 377.656 610.752 377.426C610.752 377.193 610.687 376.987 610.556 376.808C610.429 376.626 610.244 376.484 610.002 376.382C609.764 376.28 609.48 376.229 609.15 376.229H608.336V374.874H609.15C609.429 374.874 609.674 374.825 609.887 374.729C610.103 374.632 610.271 374.499 610.39 374.328C610.51 374.155 610.569 373.953 610.569 373.723C610.569 373.504 610.517 373.312 610.412 373.148C610.309 372.98 610.164 372.849 609.977 372.756C609.792 372.662 609.576 372.615 609.329 372.615C609.079 372.615 608.85 372.661 608.643 372.751C608.436 372.839 608.27 372.966 608.145 373.131C608.02 373.295 607.953 373.489 607.944 373.71H606.176C606.184 373.207 606.328 372.764 606.606 372.381C606.885 371.997 607.26 371.697 607.731 371.482C608.206 371.263 608.741 371.153 609.338 371.153C609.94 371.153 610.467 371.263 610.919 371.482C611.37 371.7 611.721 371.996 611.971 372.368C612.224 372.737 612.349 373.152 612.346 373.612C612.349 374.101 612.197 374.509 611.89 374.835C611.586 375.162 611.19 375.369 610.701 375.457V375.526C611.343 375.608 611.832 375.831 612.167 376.195C612.505 376.555 612.673 377.007 612.67 377.55C612.673 378.047 612.529 378.489 612.24 378.875C611.953 379.261 611.556 379.565 611.051 379.787C610.545 380.009 609.966 380.119 609.312 380.119Z" fill="black"></path> <rect x="800" y="299" width="30" height="31" fill="#FF9933"></rect> <rect x="800" y="30" width="30" height="179" fill="#009966"></rect> <rect x="800" y="209" width="30" height="90" fill="#FFDE33"></rect> <rect x="730" y="289" width="30" height="41" fill="#FF9933"></rect> <rect x="730" y="30" width="30" height="222" fill="#009966"></rect> <rect x="730" y="252" width="30" height="37" fill="#FFDE33"></rect> </svg> 