<?xml version="1.0" encoding="UTF-8"?> <svg xmlns="http://www.w3.org/2000/svg" width="84" height="85" viewBox="0 0 84 85" fill="none"> <path d="M63.4258 29.3107C61.3733 27.4225 58.3102 26.3905 55.5441 26.655C55.1477 26.7192 54.6626 26.3554 54.6095 25.9542C54.0159 22.9571 51.9848 20.0539 49.3836 18.4843C46.8283 16.8399 43.3445 16.3056 40.4198 17.1098C40.0711 17.2231 39.5917 17.0177 39.4307 16.6859C38.0111 14.0811 35.5012 11.6874 32.5256 10.3362C29.55 8.98493 26.1087 8.67603 23.2329 9.33027C20.3417 9.91098 17.322 11.6034 15.1481 14.0574C12.9742 16.5113 11.6461 19.7268 11.3992 22.6885C11.3873 23.0674 11.0097 23.4612 10.6344 23.4859C7.89161 23.7835 4.81056 25.3923 2.78619 27.8763C0.761841 30.3603 -0.205856 33.7196 0.0365906 36.4901C0.152855 39.2688 1.54481 42.4731 3.87185 44.6712C6.19888 46.8693 9.461 48.0613 12.2189 47.9976H56.3933C59.1716 48.0379 62.1428 46.7618 64.0387 44.714C65.9923 42.7221 67.138 39.6778 66.9867 36.8807C66.9153 34.0804 65.5314 31.1384 63.4258 29.3107Z" fill="#77C2EB"></path> <path d="M58.1484 35.8832C57.6429 36.3831 57.0208 36.6973 56.3688 36.8259C57.4721 35.3229 57.3387 33.208 55.9685 31.8529C55.2878 31.1797 54.4173 30.8084 53.5273 30.739C54.8951 29.6705 56.8857 29.7607 58.1484 31.0094C59.5093 32.3553 59.5093 34.5374 58.1484 35.8832Z" fill="white"></path> <path d="M56.3831 37.1512C56.9235 37.5177 57.5728 37.7313 58.2713 37.7313C60.152 37.7313 61.6766 36.1824 61.6766 34.2717C61.6766 32.4989 60.3641 31.0375 58.6725 30.8358C59.239 31.5098 59.5811 32.3845 59.5811 33.3403C59.5811 35.2639 58.1956 36.8588 56.3831 37.1512Z" fill="white"></path> <path d="M56.7313 34.6342C56.7313 35.3418 56.5176 35.9998 56.1511 36.5473C55.8588 34.7109 54.2639 33.3072 52.3402 33.3072C51.3844 33.3072 50.5098 33.6537 49.8358 34.2277C50.0375 32.5138 51.4988 31.1841 53.2716 31.1841C55.1823 31.1841 56.7313 32.7287 56.7313 34.6342Z" fill="white"></path> <path d="M54.8832 34.8389C55.3831 35.3381 55.6973 35.9526 55.8259 36.5966C54.3229 35.5069 52.208 35.6386 50.853 36.9919C50.1797 37.6642 49.8084 38.524 49.739 39.403C48.6705 38.0521 48.7607 36.086 50.0094 34.8389C51.3553 33.4948 53.5374 33.4948 54.8832 34.8389Z" fill="white"></path> <path d="M55.617 36.843C55.0694 36.4802 54.4115 36.2687 53.7038 36.2687C51.7984 36.2687 50.2538 37.8019 50.2538 39.6933C50.2538 41.4483 51.5835 42.8949 53.2974 43.0945C52.7234 42.4273 52.3769 41.5615 52.3769 40.6154C52.3769 38.7111 53.7806 37.1323 55.617 36.843Z" fill="white"></path> <path d="M53.8389 38.1168C54.3381 37.6169 54.9525 37.3027 55.5965 37.1741C54.5068 38.6771 54.6386 40.792 55.9918 42.1471C56.6642 42.8203 57.5239 43.1916 58.4029 43.261C57.052 44.3295 55.086 44.2393 53.8389 42.9906C52.4947 41.6447 52.4947 39.4626 53.8389 38.1168Z" fill="white"></path> <path d="M55.8488 37.4527C55.4823 37.9931 55.2686 38.6425 55.2686 39.341C55.2686 41.2217 56.8176 42.7463 58.7283 42.7463C60.5011 42.7463 61.9624 41.4338 62.1641 39.7422C61.4901 40.3087 60.6155 40.6507 59.6597 40.6507C57.736 40.6507 56.1411 39.2652 55.8488 37.4527Z" fill="white"></path> <path d="M57.1168 39.1611C56.6169 38.6619 56.3027 38.0474 56.1741 37.4034C57.6771 38.4931 59.792 38.3614 61.1471 37.0081C61.8203 36.3358 62.1916 35.476 62.261 34.597C63.3295 35.9479 63.2393 37.914 61.9906 39.1611C60.6447 40.5052 58.4626 40.5052 57.1168 39.1611Z" fill="white"></path> <path d="M5.79541 65L5.22607 63.1309H2.36328L1.79395 65H0L2.77148 57.1152H4.80713L7.58936 65H5.79541ZM4.82861 61.7344L4.25928 59.9082C4.22347 59.7865 4.17513 59.6307 4.11426 59.4409C4.05697 59.2476 3.99788 59.0524 3.93701 58.8555C3.87972 58.6549 3.83317 58.4813 3.79736 58.3345C3.76156 58.4813 3.71143 58.6639 3.64697 58.8823C3.5861 59.0972 3.52702 59.3013 3.46973 59.4946C3.41243 59.688 3.37126 59.8258 3.34619 59.9082L2.78223 61.7344H4.82861ZM11.8057 58.8823C11.888 58.8823 11.9829 58.8877 12.0903 58.8984C12.2013 58.9056 12.2909 58.9163 12.3589 58.9307L12.2354 60.4668C12.1816 60.4489 12.1047 60.4364 12.0044 60.4292C11.9077 60.4185 11.8236 60.4131 11.752 60.4131C11.5407 60.4131 11.3348 60.4399 11.1343 60.4937C10.9373 60.5474 10.7601 60.6351 10.6025 60.7568C10.445 60.875 10.3197 61.0326 10.2266 61.2295C10.137 61.4229 10.0923 61.661 10.0923 61.9438V65H8.4541V58.9951H9.69482L9.93652 60.0049H10.0171C10.1353 59.8008 10.2821 59.6146 10.4575 59.4463C10.6366 59.2744 10.8389 59.1383 11.0645 59.0381C11.2936 58.9342 11.5407 58.8823 11.8057 58.8823ZM20.5015 58.8823C21.1818 58.8823 21.6956 59.0578 22.043 59.4087C22.3939 59.756 22.5693 60.3146 22.5693 61.0845V65H20.9258V61.4927C20.9258 61.063 20.8524 60.7389 20.7056 60.5205C20.5588 60.3021 20.3314 60.1929 20.0234 60.1929C19.5902 60.1929 19.2822 60.3486 19.0996 60.6602C18.917 60.9681 18.8257 61.4103 18.8257 61.9868V65H17.1875V61.4927C17.1875 61.2062 17.1553 60.9663 17.0908 60.7729C17.0264 60.5796 16.9279 60.4346 16.7954 60.3379C16.6629 60.2412 16.4928 60.1929 16.2852 60.1929C15.9808 60.1929 15.7409 60.2699 15.5654 60.4238C15.3936 60.5742 15.27 60.798 15.1948 61.0952C15.1232 61.3888 15.0874 61.7487 15.0874 62.1748V65H13.4492V58.9951H14.7007L14.9209 59.7632H15.0122C15.134 59.5555 15.2861 59.3872 15.4688 59.2583C15.6549 59.1294 15.859 59.0345 16.0811 58.9736C16.3031 58.9128 16.5286 58.8823 16.7578 58.8823C17.1982 58.8823 17.5706 58.9539 17.875 59.0972C18.1829 59.2404 18.4193 59.4624 18.584 59.7632H18.729C18.908 59.4552 19.1605 59.2314 19.4863 59.0918C19.8158 58.9521 20.1541 58.8823 20.5015 58.8823ZM26.7319 58.8823C27.2869 58.8823 27.765 58.9897 28.166 59.2046C28.5671 59.4159 28.8768 59.7238 29.0952 60.1284C29.3136 60.533 29.4229 61.0272 29.4229 61.6108V62.4058H25.5503C25.5682 62.8677 25.7061 63.2311 25.9639 63.4961C26.2253 63.7575 26.5869 63.8882 27.0488 63.8882C27.432 63.8882 27.7829 63.8488 28.1016 63.77C28.4202 63.6912 28.7479 63.5731 29.0845 63.4155V64.6831C28.7873 64.8299 28.4757 64.9373 28.1499 65.0054C27.8276 65.0734 27.4355 65.1074 26.9736 65.1074C26.3721 65.1074 25.8385 64.9964 25.373 64.7744C24.9111 64.5524 24.5477 64.214 24.2827 63.7593C24.0213 63.3045 23.8906 62.7316 23.8906 62.0405C23.8906 61.3387 24.0088 60.755 24.2451 60.2896C24.485 59.8205 24.818 59.4696 25.2441 59.2368C25.6702 59.0005 26.1662 58.8823 26.7319 58.8823ZM26.7427 60.0479C26.424 60.0479 26.159 60.1499 25.9478 60.354C25.7401 60.5581 25.6201 60.8786 25.5879 61.3154H27.8867C27.8831 61.0719 27.8384 60.8553 27.7524 60.6655C27.6701 60.4757 27.5448 60.3254 27.3765 60.2144C27.2118 60.1034 27.0005 60.0479 26.7427 60.0479ZM34.1655 58.8823C34.8065 58.8823 35.3221 59.0578 35.7124 59.4087C36.1027 59.756 36.2979 60.3146 36.2979 61.0845V65H34.6597V61.4927C34.6597 61.063 34.5809 60.7389 34.4233 60.5205C34.2694 60.3021 34.0259 60.1929 33.6929 60.1929C33.1916 60.1929 32.8496 60.363 32.667 60.7031C32.4844 61.0433 32.3931 61.5339 32.3931 62.1748V65H30.7549V58.9951H32.0063L32.2266 59.7632H32.3179C32.4468 59.5555 32.6061 59.3872 32.7959 59.2583C32.9893 59.1294 33.2023 59.0345 33.4351 58.9736C33.6714 58.9128 33.9149 58.8823 34.1655 58.8823ZM39.6226 58.9951V65H37.9844V58.9951H39.6226ZM38.8062 56.6426C39.0496 56.6426 39.2591 56.6999 39.4346 56.8145C39.61 56.9255 39.6978 57.1349 39.6978 57.4429C39.6978 57.7472 39.61 57.9585 39.4346 58.0767C39.2591 58.1912 39.0496 58.2485 38.8062 58.2485C38.5591 58.2485 38.3478 58.1912 38.1724 58.0767C38.0005 57.9585 37.9146 57.7472 37.9146 57.4429C37.9146 57.1349 38.0005 56.9255 38.1724 56.8145C38.3478 56.6999 38.5591 56.6426 38.8062 56.6426ZM43.8066 58.8716C44.6123 58.8716 45.23 59.047 45.6597 59.3979C46.0894 59.7489 46.3042 60.2824 46.3042 60.9985V65H45.1602L44.8433 64.1836H44.8003C44.6284 64.3984 44.453 64.5739 44.2739 64.71C44.0949 64.846 43.889 64.9463 43.6562 65.0107C43.4235 65.0752 43.1406 65.1074 42.8076 65.1074C42.4531 65.1074 42.1344 65.0394 41.8516 64.9033C41.5723 64.7673 41.3521 64.5596 41.1909 64.2803C41.0298 63.9974 40.9492 63.6393 40.9492 63.2061C40.9492 62.5687 41.173 62.0996 41.6206 61.7988C42.0682 61.4945 42.7396 61.3262 43.6348 61.2939L44.6768 61.2617V60.9985C44.6768 60.6834 44.5944 60.4525 44.4297 60.3057C44.265 60.1589 44.0358 60.0854 43.7422 60.0854C43.4521 60.0854 43.1675 60.1266 42.8882 60.209C42.6089 60.2913 42.3296 60.3952 42.0503 60.5205L41.5078 59.4141C41.8265 59.2458 42.1828 59.1133 42.5767 59.0166C42.9741 58.9199 43.3841 58.8716 43.8066 58.8716ZM44.6768 62.2178L44.043 62.2393C43.513 62.2536 43.1442 62.3485 42.9365 62.5239C42.7324 62.6994 42.6304 62.9303 42.6304 63.2168C42.6304 63.4674 42.7038 63.6465 42.8506 63.7539C42.9974 63.8577 43.189 63.9097 43.4253 63.9097C43.7762 63.9097 44.0716 63.8058 44.3115 63.5981C44.555 63.3905 44.6768 63.0951 44.6768 62.7119V62.2178ZM55.7896 65L55.2202 63.1309H52.3574L51.7881 65H49.9941L52.7656 57.1152H54.8013L57.5835 65H55.7896ZM54.8228 61.7344L54.2534 59.9082C54.2176 59.7865 54.1693 59.6307 54.1084 59.4409C54.0511 59.2476 53.992 59.0524 53.9312 58.8555C53.8739 58.6549 53.8273 58.4813 53.7915 58.3345C53.7557 58.4813 53.7056 58.6639 53.6411 58.8823C53.5802 59.0972 53.5212 59.3013 53.4639 59.4946C53.4066 59.688 53.3654 59.8258 53.3403 59.9082L52.7764 61.7344H54.8228ZM60.0864 58.9951V65H58.4482V58.9951H60.0864ZM59.27 56.6426C59.5135 56.6426 59.723 56.6999 59.8984 56.8145C60.0739 56.9255 60.1616 57.1349 60.1616 57.4429C60.1616 57.7472 60.0739 57.9585 59.8984 58.0767C59.723 58.1912 59.5135 58.2485 59.27 58.2485C59.0229 58.2485 58.8117 58.1912 58.6362 58.0767C58.4644 57.9585 58.3784 57.7472 58.3784 57.4429C58.3784 57.1349 58.4644 56.9255 58.6362 56.8145C58.8117 56.6999 59.0229 56.6426 59.27 56.6426ZM65.1621 58.8823C65.2445 58.8823 65.3394 58.8877 65.4468 58.8984C65.5578 58.9056 65.6473 58.9163 65.7153 58.9307L65.5918 60.4668C65.5381 60.4489 65.4611 60.4364 65.3608 60.4292C65.2642 60.4185 65.18 60.4131 65.1084 60.4131C64.8971 60.4131 64.6912 60.4399 64.4907 60.4937C64.2938 60.5474 64.1165 60.6351 63.959 60.7568C63.8014 60.875 63.6761 61.0326 63.583 61.2295C63.4935 61.4229 63.4487 61.661 63.4487 61.9438V65H61.8105V58.9951H63.0513L63.293 60.0049H63.3735C63.4917 59.8008 63.6385 59.6146 63.814 59.4463C63.993 59.2744 64.1953 59.1383 64.4209 59.0381C64.6501 58.9342 64.8971 58.8823 65.1621 58.8823ZM8.11572 76.063C8.11572 76.6466 8.0459 77.182 7.90625 77.6689C7.77018 78.1523 7.55892 78.5713 7.27246 78.9258C6.986 79.2803 6.62256 79.5578 6.18213 79.7583L8.07275 81.8691H5.94043L4.50098 80.1074C4.47591 80.1074 4.45443 80.1074 4.43652 80.1074C4.41862 80.1074 4.39893 80.1074 4.37744 80.1074C3.73649 80.1074 3.18148 80.0125 2.7124 79.8228C2.24333 79.6294 1.85482 79.3537 1.54688 78.9956C1.24251 78.6375 1.01514 78.2096 0.864746 77.7119C0.714355 77.2142 0.63916 76.661 0.63916 76.0522C0.63916 75.2394 0.771647 74.5322 1.03662 73.9307C1.30518 73.3255 1.71696 72.8564 2.27197 72.5234C2.82699 72.1904 3.53239 72.0239 4.38818 72.0239C5.2404 72.0239 5.94043 72.1904 6.48828 72.5234C7.03971 72.8564 7.44792 73.3255 7.71289 73.9307C7.98145 74.5358 8.11572 75.2466 8.11572 76.063ZM2.38477 76.063C2.38477 76.6108 2.4528 77.0835 2.58887 77.481C2.72852 77.8748 2.94515 78.1792 3.23877 78.394C3.53239 78.6053 3.91195 78.7109 4.37744 78.7109C4.8501 78.7109 5.23324 78.6053 5.52686 78.394C5.82048 78.1792 6.03353 77.8748 6.16602 77.481C6.30208 77.0835 6.37012 76.6108 6.37012 76.063C6.37012 75.2394 6.21615 74.5913 5.9082 74.1187C5.60026 73.646 5.09359 73.4097 4.38818 73.4097C3.91911 73.4097 3.53597 73.5171 3.23877 73.7319C2.94515 73.9432 2.72852 74.2476 2.58887 74.645C2.4528 75.0389 2.38477 75.5116 2.38477 76.063ZM15.125 73.9951V80H13.8682L13.6479 79.2319H13.562C13.4331 79.436 13.272 79.6025 13.0786 79.7314C12.8853 79.8604 12.6722 79.9552 12.4395 80.0161C12.2067 80.077 11.965 80.1074 11.7144 80.1074C11.2847 80.1074 10.9105 80.0322 10.5918 79.8818C10.2731 79.7279 10.0243 79.4897 9.84521 79.1675C9.66976 78.8452 9.58203 78.4263 9.58203 77.9106V73.9951H11.2202V77.5024C11.2202 77.9321 11.2972 78.2562 11.4512 78.4746C11.6051 78.693 11.8504 78.8022 12.187 78.8022C12.52 78.8022 12.7814 78.7271 12.9712 78.5767C13.161 78.4227 13.2935 78.1989 13.3687 77.9053C13.4474 77.6081 13.4868 77.2464 13.4868 76.8203V73.9951H15.125ZM19.3037 73.8716C20.1094 73.8716 20.7271 74.047 21.1567 74.3979C21.5864 74.7489 21.8013 75.2824 21.8013 75.9985V80H20.6572L20.3403 79.1836H20.2974C20.1255 79.3984 19.95 79.5739 19.771 79.71C19.592 79.846 19.3861 79.9463 19.1533 80.0107C18.9206 80.0752 18.6377 80.1074 18.3047 80.1074C17.9502 80.1074 17.6315 80.0394 17.3486 79.9033C17.0693 79.7673 16.8491 79.5596 16.688 79.2803C16.5269 78.9974 16.4463 78.6393 16.4463 78.2061C16.4463 77.5687 16.6701 77.0996 17.1177 76.7988C17.5653 76.4945 18.2367 76.3262 19.1318 76.2939L20.1738 76.2617V75.9985C20.1738 75.6834 20.0915 75.4525 19.9268 75.3057C19.762 75.1589 19.5329 75.0854 19.2393 75.0854C18.9492 75.0854 18.6646 75.1266 18.3853 75.209C18.106 75.2913 17.8267 75.3952 17.5474 75.5205L17.0049 74.4141C17.3236 74.2458 17.6799 74.1133 18.0737 74.0166C18.4712 73.9199 18.8812 73.8716 19.3037 73.8716ZM20.1738 77.2178L19.54 77.2393C19.0101 77.2536 18.6413 77.3485 18.4336 77.5239C18.2295 77.6994 18.1274 77.9303 18.1274 78.2168C18.1274 78.4674 18.2008 78.6465 18.3477 78.7539C18.4945 78.8577 18.686 78.9097 18.9224 78.9097C19.2733 78.9097 19.5687 78.8058 19.8086 78.5981C20.0521 78.3905 20.1738 78.0951 20.1738 77.7119V77.2178ZM25.1313 80H23.4932V71.6426H25.1313V80ZM28.4937 73.9951V80H26.8555V73.9951H28.4937ZM27.6772 71.6426C27.9207 71.6426 28.1302 71.6999 28.3057 71.8145C28.4811 71.9255 28.5688 72.1349 28.5688 72.4429C28.5688 72.7472 28.4811 72.9585 28.3057 73.0767C28.1302 73.1912 27.9207 73.2485 27.6772 73.2485C27.4302 73.2485 27.2189 73.1912 27.0435 73.0767C26.8716 72.9585 26.7856 72.7472 26.7856 72.4429C26.7856 72.1349 26.8716 71.9255 27.0435 71.8145C27.2189 71.6999 27.4302 71.6426 27.6772 71.6426ZM32.7476 78.8022C32.9266 78.8022 33.1003 78.7843 33.2686 78.7485C33.4404 78.7127 33.6105 78.668 33.7788 78.6143V79.8335C33.6034 79.9123 33.3849 79.9767 33.1235 80.0269C32.8657 80.0806 32.5828 80.1074 32.2749 80.1074C31.9168 80.1074 31.5946 80.0501 31.3081 79.9355C31.0252 79.8174 30.8014 79.6151 30.6367 79.3286C30.4756 79.0386 30.395 78.6357 30.395 78.1201V75.2251H29.6108V74.5322L30.5132 73.9844L30.9858 72.7168H32.0332V73.9951H33.7144V75.2251H32.0332V78.1201C32.0332 78.3493 32.0977 78.5212 32.2266 78.6357C32.359 78.7467 32.5327 78.8022 32.7476 78.8022ZM34.1387 73.9951H35.9326L37.0659 77.3735C37.1017 77.481 37.1322 77.5902 37.1572 77.7012C37.1823 77.8122 37.2038 77.9268 37.2217 78.0449C37.2396 78.1631 37.2539 78.2866 37.2646 78.4155H37.2969C37.3184 78.2222 37.347 78.0413 37.3828 77.873C37.4222 77.7048 37.4705 77.5382 37.5278 77.3735L38.6396 73.9951H40.396L37.8555 80.7681C37.7015 81.1834 37.501 81.529 37.2539 81.8047C37.0068 82.084 36.7222 82.2935 36.3999 82.4331C36.0812 82.5728 35.7303 82.6426 35.3472 82.6426C35.161 82.6426 34.9998 82.6318 34.8638 82.6104C34.7277 82.5924 34.6113 82.5728 34.5146 82.5513V81.2515C34.5898 81.2694 34.6847 81.2855 34.7993 81.2998C34.9139 81.3141 35.0339 81.3213 35.1592 81.3213C35.3883 81.3213 35.5853 81.2729 35.75 81.1763C35.9147 81.0796 36.0526 80.9489 36.1636 80.7842C36.2746 80.623 36.3623 80.4458 36.4268 80.2524L36.5234 79.957L34.1387 73.9951ZM44.2471 80V72.1475H45.9121V80H44.2471ZM51.1704 73.8823C51.8114 73.8823 52.327 74.0578 52.7173 74.4087C53.1076 74.756 53.3027 75.3146 53.3027 76.0845V80H51.6646V76.4927C51.6646 76.063 51.5858 75.7389 51.4282 75.5205C51.2743 75.3021 51.0308 75.1929 50.6978 75.1929C50.1965 75.1929 49.8545 75.363 49.6719 75.7031C49.4893 76.0433 49.3979 76.5339 49.3979 77.1748V80H47.7598V73.9951H49.0112L49.2314 74.7632H49.3228C49.4517 74.5555 49.611 74.3872 49.8008 74.2583C49.9941 74.1294 50.2072 74.0345 50.4399 73.9736C50.6763 73.9128 50.9198 73.8823 51.1704 73.8823ZM56.8906 80.1074C56.221 80.1074 55.675 79.846 55.2524 79.3232C54.8335 78.7969 54.624 78.0252 54.624 77.0083C54.624 75.9806 54.8371 75.2036 55.2632 74.6772C55.6893 74.1473 56.2461 73.8823 56.9336 73.8823C57.2201 73.8823 57.4725 73.9217 57.6909 74.0005C57.9093 74.0793 58.0973 74.1849 58.2549 74.3174C58.416 74.4499 58.5521 74.5985 58.6631 74.7632H58.7168C58.6953 74.6486 58.6685 74.4803 58.6362 74.2583C58.6076 74.0327 58.5933 73.8018 58.5933 73.5654V71.6426H60.2368V80H58.98L58.6631 79.2212H58.5933C58.4894 79.3859 58.3587 79.5363 58.2012 79.6724C58.0472 79.8049 57.8628 79.9105 57.6479 79.9893C57.4331 80.068 57.1807 80.1074 56.8906 80.1074ZM57.4653 78.8022C57.9129 78.8022 58.228 78.6698 58.4106 78.4048C58.5968 78.1362 58.6953 77.7334 58.7061 77.1963V77.019C58.7061 76.4354 58.6165 75.9896 58.4375 75.6816C58.2585 75.3701 57.9255 75.2144 57.4385 75.2144C57.0768 75.2144 56.7939 75.3701 56.5898 75.6816C56.3857 75.9932 56.2837 76.4425 56.2837 77.0298C56.2837 77.617 56.3857 78.0592 56.5898 78.3564C56.7975 78.6536 57.0894 78.8022 57.4653 78.8022ZM64.4263 73.8823C64.9813 73.8823 65.4593 73.9897 65.8604 74.2046C66.2614 74.4159 66.5711 74.7238 66.7896 75.1284C67.008 75.533 67.1172 76.0272 67.1172 76.6108V77.4058H63.2446C63.2625 77.8677 63.4004 78.2311 63.6582 78.4961C63.9196 78.7575 64.2812 78.8882 64.7432 78.8882C65.1263 78.8882 65.4772 78.8488 65.7959 78.77C66.1146 78.6912 66.4422 78.5731 66.7788 78.4155V79.6831C66.4816 79.8299 66.1701 79.9373 65.8442 80.0054C65.522 80.0734 65.1299 80.1074 64.668 80.1074C64.0664 80.1074 63.5329 79.9964 63.0674 79.7744C62.6055 79.5524 62.242 79.214 61.9771 78.7593C61.7157 78.3045 61.585 77.7316 61.585 77.0405C61.585 76.3387 61.7031 75.755 61.9395 75.2896C62.1794 74.8205 62.5124 74.4696 62.9385 74.2368C63.3646 74.0005 63.8605 73.8823 64.4263 73.8823ZM64.437 75.0479C64.1183 75.0479 63.8534 75.1499 63.6421 75.354C63.4344 75.5581 63.3145 75.8786 63.2822 76.3154H65.5811C65.5775 76.0719 65.5327 75.8553 65.4468 75.6655C65.3644 75.4757 65.2391 75.3254 65.0708 75.2144C64.9061 75.1034 64.6948 75.0479 64.437 75.0479ZM69.6792 76.9331L67.7456 73.9951H69.604L70.7695 75.9072L71.9458 73.9951H73.8042L71.8491 76.9331L73.8955 80H72.0317L70.7695 77.9429L69.502 80H67.6436L69.6792 76.9331Z" fill="black"></path> </svg> 